<svg width="109" height="124" viewBox="0 0 109 124" fill="none" xmlns="http://www.w3.org/2000/svg">
<path d="M55.3935 20.5247C61.0618 20.5247 65.6558 15.9307 65.6558 10.2623C65.6558 4.594 61.0618 0 55.3935 0C49.7252 0 45.1312 4.594 45.1312 10.2623C45.1376 15.9275 49.7284 20.5183 55.3935 20.5247ZM55.3935 3.42025C59.1713 3.42025 62.2356 6.48291 62.2356 10.2623C62.2356 14.0418 59.1729 17.1044 55.3935 17.1044C51.6141 17.1044 48.5514 14.0418 48.5514 10.2623C48.5514 6.48291 51.6141 3.42025 55.3935 3.42025Z" fill="#300C15"/>
<path d="M55.3935 103.219C61.0618 103.219 65.6558 98.625 65.6558 92.9567C65.6558 87.2883 61.0618 82.6943 55.3935 82.6943C49.7252 82.6943 45.1312 87.2883 45.1312 92.9567C45.1376 98.6218 49.7284 103.213 55.3935 103.219ZM55.3935 86.1146C59.1713 86.1146 62.2356 89.1772 62.2356 92.9567C62.2356 96.7361 59.1729 99.7988 55.3935 99.7988C51.6141 99.7988 48.5514 96.7361 48.5514 92.9567C48.5514 89.1772 51.6141 86.1146 55.3935 86.1146Z" fill="#300C15"/>
<path d="M55.3919 23.6035C46.8959 23.6133 40.0096 30.6378 40 39.3044C40 40.2677 40.7664 41.0495 41.7107 41.0495C42.6551 41.0495 43.4215 40.2677 43.4215 39.3044C43.4215 32.5596 48.7814 27.0921 55.3935 27.0921C62.0056 27.0921 67.3655 32.5596 67.3655 39.3044C67.3655 40.2677 68.1319 41.0495 69.0763 41.0495C70.0206 41.0495 70.787 40.2677 70.787 39.3044C70.7774 30.6378 63.8911 23.6133 55.3951 23.6035H55.3919Z" fill="#300C15"/>
<path d="M55.3919 106.298C46.8959 106.308 40.0096 113.332 40 121.999C40 122.962 40.7664 123.744 41.7107 123.744C42.6551 123.744 43.4215 122.962 43.4215 121.999C43.4215 115.254 48.7814 109.786 55.3935 109.786C62.0056 109.786 67.3655 115.254 67.3655 121.999C67.3655 122.962 68.1319 123.744 69.0763 123.744C70.0206 123.744 70.787 122.962 70.787 121.999C70.7774 113.332 63.8911 106.308 55.3951 106.298H55.3919Z" fill="#300C15"/>
<path d="M15.3935 70.5247C21.0618 70.5247 25.6558 65.9307 25.6558 60.2623C25.6558 54.594 21.0618 50 15.3935 50C9.72517 50 5.13116 54.594 5.13116 60.2623C5.13758 65.9275 9.72837 70.5183 15.3935 70.5247ZM15.3935 53.4202C19.1713 53.4202 22.2356 56.4829 22.2356 60.2623C22.2356 64.0418 19.1729 67.1044 15.3935 67.1044C11.6141 67.1044 8.55141 64.0418 8.55141 60.2623C8.55141 56.4829 11.6141 53.4202 15.3935 53.4202Z" fill="#300C15"/>
<path d="M93.1806 70.5247C98.8489 70.5247 103.443 65.9307 103.443 60.2623C103.443 54.594 98.8489 50 93.1806 50C87.5122 50 82.9182 54.594 82.9182 60.2623C82.9246 65.9275 87.5154 70.5183 93.1806 70.5247ZM93.1806 53.4202C96.9584 53.4202 100.023 56.4829 100.023 60.2623C100.023 64.0418 96.96 67.1044 93.1806 67.1044C89.4011 67.1044 86.3385 64.0418 86.3385 60.2623C86.3385 56.4829 89.4011 53.4202 93.1806 53.4202Z" fill="#300C15"/>
<path d="M15.3919 73.6035C6.89589 73.6133 0.00961994 80.6378 0 89.3044C0 90.2677 0.766389 91.0495 1.71075 91.0495C2.6551 91.0495 3.42149 90.2677 3.42149 89.3044C3.42149 82.5596 8.7814 77.0921 15.3935 77.0921C22.0056 77.0921 27.3655 82.5596 27.3655 89.3044C27.3655 90.2677 28.1319 91.0495 29.0763 91.0495C30.0206 91.0495 30.787 90.2677 30.787 89.3044C30.7774 80.6378 23.8911 73.6133 15.3951 73.6035H15.3919Z" fill="#300C15"/>
<path d="M93.179 73.6035C84.6829 73.6133 77.7967 80.6378 77.787 89.3044C77.787 90.2677 78.5534 91.0495 79.4978 91.0495C80.4422 91.0495 81.2085 90.2677 81.2085 89.3044C81.2085 82.5596 86.5685 77.0921 93.1806 77.0921C99.7927 77.0921 105.153 82.5596 105.153 89.3044C105.153 90.2677 105.919 91.0495 106.863 91.0495C107.808 91.0495 108.574 90.2677 108.574 89.3044C108.564 80.6378 101.678 73.6133 93.1822 73.6035H93.179Z" fill="#300C15"/>
<g clip-path="url(#clip0_1_956)">
<path d="M87.0993 28.5029H73.1313C72.9632 29.377 72.7279 30.2342 72.4337 31.0578H87.0993C90.6543 31.0578 93.5538 33.9573 93.5538 37.5124V43.0676H93.5622C94.4278 43.0676 95.2767 43.1349 96.1087 43.2609V37.5124C96.1087 32.5454 92.0662 28.5029 87.0993 28.5029ZM24.403 109.184C20.848 109.184 17.9485 106.285 17.9485 102.73V92.2161H15.3936V102.73C15.3936 107.697 19.436 111.739 24.403 111.739H32.656C33.051 110.84 33.5301 109.983 34.0764 109.184H24.403ZM38.0348 28.5029H24.403C19.436 28.5029 15.3936 32.5454 15.3936 37.5124V43.2189C16.1163 43.1181 16.8559 43.0676 17.6123 43.0676C17.7216 43.0676 17.8392 43.0676 17.9485 43.0844V37.5124C17.9485 33.9573 20.848 31.0578 24.403 31.0578H38.7324C38.4382 30.2342 38.2029 29.377 38.0348 28.5029ZM93.5538 92.2161V102.73C93.5538 106.285 90.6543 109.184 87.0993 109.184H77.0981C77.636 109.983 78.115 110.84 78.5184 111.739H87.0993C92.0662 111.739 96.1087 107.697 96.1087 102.73V92.2161H93.5538Z" fill="#ED3C6A"/>
</g>
<defs>
<clipPath id="clip0_1_956">
<rect width="80.7151" height="83.2365" fill="white" transform="translate(15.3936 28.5029)"/>
</clipPath>
</defs>
</svg>
