<svg width="73" height="58" viewBox="0 0 73 58" fill="none" xmlns="http://www.w3.org/2000/svg">
<path d="M21.75 29.0001C29.7591 29.0001 36.2501 22.5091 36.2501 14.5C36.2501 6.49104 29.7591 0 21.75 0C13.741 0 7.25 6.49104 7.25 14.5C7.25906 22.5045 13.7456 28.991 21.75 29.0001ZM21.75 4.83259C27.0879 4.83259 31.4175 9.15995 31.4175 14.5C31.4175 19.8401 27.0901 24.1675 21.75 24.1675C16.41 24.1675 12.0826 19.8401 12.0826 14.5C12.0826 9.15995 16.41 4.83259 21.75 4.83259Z" fill="#300C15"/>
<path d="M21.7478 33.3501C9.74347 33.364 0.0135924 43.2892 0 55.5345C0 56.8956 1.08286 58.0002 2.41718 58.0002C3.7515 58.0002 4.83436 56.8956 4.83436 55.5345C4.83436 46.0044 12.4076 38.2792 21.7501 38.2792C31.0926 38.2792 38.6658 46.0044 38.6658 55.5345C38.6658 56.8956 39.7487 58.0002 41.083 58.0002C42.4173 58.0002 43.5001 56.8956 43.5001 55.5345C43.4866 43.2892 33.7567 33.364 21.7523 33.3501H21.7478Z" fill="#300C15"/>
<g clip-path="url(#clip0_1_967)">
<path d="M72.1758 19.7353V24.5765H59.9059V37.8063H55.2317V24.5765H42.9618V19.7353H55.2317V8.59229H59.9059V19.7353H72.1758Z" fill="#ED3C6A"/>
</g>
<defs>
<clipPath id="clip0_1_967">
<rect width="29.214" height="29.214" fill="white" transform="translate(42.9618 8.59229)"/>
</clipPath>
</defs>
</svg>
