<svg width="98" height="97" viewBox="0 0 98 97" fill="none" xmlns="http://www.w3.org/2000/svg">
<path d="M57.0323 69.5667C57.0323 58.4702 66.1354 49.4424 77.3251 49.4424C82.2382 49.4424 86.7489 51.1835 90.2638 54.0761V24.0127H7.35345V73.8036C9.51575 77.1033 12.0878 80.1146 14.9992 82.7654H62.0186C58.9143 79.2299 57.0323 74.6119 57.0323 69.5667Z" fill="#EEF6FF"/>
<path d="M7.35345 24.0127V73.8036C9.05966 76.4078 11.0253 78.8288 13.207 81.0377V24.0127H7.35345Z" fill="#D9EAFC"/>
<path d="M88.3497 12.4335H9.26752C8.21478 12.4335 7.35345 13.2877 7.35345 14.3317V24.2026H90.2638V14.3317C90.2638 13.2877 89.4024 12.4335 88.3497 12.4335Z" fill="#EA2A3D"/>
<path d="M15.1211 12.4335H9.26752C8.21478 12.4335 7.35345 13.2877 7.35345 14.3317V24.2026H13.207V14.3317C13.207 13.2877 14.0684 12.4335 15.1211 12.4335Z" fill="#ED3C6A"/>
<path d="M28.6302 37.9248C28.6302 38.4468 28.1995 38.8739 27.6732 38.8739H14.0654C13.539 38.8739 13.1083 38.4468 13.1083 37.9248V29.9025C13.1083 29.3805 13.539 28.9534 14.0654 28.9534H27.6732C28.1995 28.9534 28.6302 29.3805 28.6302 29.9025V37.9248Z" fill="#91E0E8"/>
<path d="M47.2564 37.9248C47.2564 38.4468 46.8257 38.8739 46.2994 38.8739H32.6916C32.1652 38.8739 31.7346 38.4468 31.7346 37.9248V29.9025C31.7346 29.3805 32.1652 28.9534 32.6916 28.9534H46.2994C46.8257 28.9534 47.2564 29.3805 47.2564 29.9025V37.9248Z" fill="#91E0E8"/>
<path d="M65.8826 37.9248C65.8826 38.4468 65.452 38.8739 64.9256 38.8739H51.3178C50.7914 38.8739 50.3608 38.4468 50.3608 37.9248V29.9025C50.3608 29.3805 50.7914 28.9534 51.3178 28.9534H64.9256C65.452 28.9534 65.8826 29.3805 65.8826 29.9025V37.9248Z" fill="#91E0E8"/>
<path d="M84.5089 37.9248C84.5089 38.4468 84.0782 38.8739 83.5518 38.8739H69.944C69.4177 38.8739 68.987 38.4468 68.987 37.9248V29.9025C68.987 29.3805 69.4177 28.9534 69.944 28.9534H83.5518C84.0782 28.9534 84.5089 29.3805 84.5089 29.9025V37.9248Z" fill="#FFC987"/>
<path d="M28.6302 50.5814C28.6302 51.1034 28.1995 51.5305 27.6732 51.5305H14.0654C13.539 51.5305 13.1083 51.1034 13.1083 50.5814V42.5591C13.1083 42.0371 13.539 41.61 14.0654 41.61H27.6732C28.1995 41.61 28.6302 42.0371 28.6302 42.5591V50.5814Z" fill="#91E0E8"/>
<path d="M47.2564 50.5814C47.2564 51.1034 46.8257 51.5305 46.2994 51.5305H32.6916C32.1652 51.5305 31.7346 51.1034 31.7346 50.5814V42.5591C31.7346 42.0371 32.1652 41.61 32.6916 41.61H46.2994C46.8257 41.61 47.2564 42.0371 47.2564 42.5591V50.5814Z" fill="#91E0E8"/>
<path d="M65.8826 50.5814C65.8826 51.1034 65.452 51.5305 64.9256 51.5305H51.3178C50.7914 51.5305 50.3608 51.1034 50.3608 50.5814V42.5591C50.3608 42.0371 50.7914 41.61 51.3178 41.61H64.9256C65.452 41.61 65.8826 42.0371 65.8826 42.5591V50.5814Z" fill="#91E0E8"/>
<path d="M77.3244 49.4424C79.8471 49.4424 82.2628 49.9029 84.4924 50.7401C84.5014 50.6882 84.5089 50.6363 84.5089 50.5814V42.5591C84.5089 42.0371 84.0782 41.61 83.5518 41.61H69.944C69.4177 41.61 68.987 42.0371 68.987 42.5591V50.5814C68.987 50.7905 69.058 50.9818 69.1739 51.139C71.6704 50.049 74.4271 49.4424 77.3244 49.4424Z" fill="#FFC987"/>
<path d="M28.6302 63.2387C28.6302 63.7608 28.1995 64.1879 27.6732 64.1879H14.0654C13.539 64.1879 13.1083 63.7608 13.1083 63.2387V55.2165C13.1083 54.6944 13.539 54.2673 14.0654 54.2673H27.6732C28.1995 54.2673 28.6302 54.6944 28.6302 55.2165V63.2387Z" fill="#91E0E8"/>
<path d="M47.2564 63.2387C47.2564 63.7608 46.8257 64.1879 46.2994 64.1879H32.6916C32.1652 64.1879 31.7346 63.7608 31.7346 63.2387V55.2165C31.7346 54.6944 32.1652 54.2673 32.6916 54.2673H46.2994C46.8257 54.2673 47.2564 54.6944 47.2564 55.2165V63.2387Z" fill="#91E0E8"/>
<path d="M64.1577 54.2673H51.3178C50.7914 54.2673 50.3608 54.6944 50.3608 55.2165V63.2387C50.3608 63.7608 50.7914 64.1879 51.3178 64.1879H57.7695C58.8656 60.2742 61.1266 56.8366 64.1577 54.2673Z" fill="#91E0E8"/>
<path d="M28.6302 75.8955C28.6302 76.4175 28.1995 76.8446 27.6732 76.8446H14.0654C13.539 76.8446 13.1083 76.4175 13.1083 75.8955V67.8732C13.1083 67.3512 13.539 66.9241 14.0654 66.9241H27.6732C28.1995 66.9241 28.6302 67.3512 28.6302 67.8732V75.8955Z" fill="#91E0E8"/>
<path d="M47.2564 75.8955C47.2564 76.4175 46.8257 76.8446 46.2994 76.8446H32.6916C32.1652 76.8446 31.7346 76.4175 31.7346 75.8955V67.8732C31.7346 67.3512 32.1652 66.9241 32.6916 66.9241H46.2994C46.8257 66.9241 47.2564 67.3512 47.2564 67.8732V75.8955Z" fill="#91E0E8"/>
<path d="M57.0323 69.5668C57.0323 68.671 57.0921 67.7894 57.2073 66.9241H51.3178C50.7914 66.9241 50.3608 67.3512 50.3608 67.8732V75.8955C50.3608 76.4175 50.7914 76.8446 51.3178 76.8446H58.4058C57.5198 74.5867 57.0323 72.1324 57.0323 69.5668Z" fill="#91E0E8"/>
<path d="M14.3555 7.94739C13.5622 7.94739 12.9199 8.58434 12.9199 9.37107V17.205C12.9199 17.991 13.5622 18.6287 14.3555 18.6287C15.1488 18.6287 15.791 17.991 15.791 17.205V9.37107C15.791 8.58434 15.1488 7.94739 14.3555 7.94739Z" fill="#C3DDF4"/>
<path d="M21.2461 7.94739C20.4528 7.94739 19.8105 8.58434 19.8105 9.37107V17.205C19.8105 17.991 20.4528 18.6287 21.2461 18.6287C22.0394 18.6287 22.6816 17.991 22.6816 17.205V9.37107C22.6816 8.58434 22.0394 7.94739 21.2461 7.94739Z" fill="#C3DDF4"/>
<path d="M28.1367 7.94739C27.3434 7.94739 26.7012 8.58434 26.7012 9.37107V17.205C26.7012 17.991 27.3434 18.6287 28.1367 18.6287C28.93 18.6287 29.5723 17.991 29.5723 17.205V9.37107C29.5723 8.58434 28.93 7.94739 28.1367 7.94739Z" fill="#C3DDF4"/>
<path d="M35.0273 7.94739C34.2341 7.94739 33.5918 8.58434 33.5918 9.37107V17.205C33.5918 17.991 34.2341 18.6287 35.0273 18.6287C35.8206 18.6287 36.4629 17.991 36.4629 17.205V9.37107C36.4629 8.58434 35.8206 7.94739 35.0273 7.94739Z" fill="#C3DDF4"/>
<path d="M41.918 7.94739C41.1247 7.94739 40.4824 8.58434 40.4824 9.37107V17.205C40.4824 17.991 41.1247 18.6287 41.918 18.6287C42.7113 18.6287 43.3535 17.991 43.3535 17.205V9.37107C43.3535 8.58434 42.7113 7.94739 41.918 7.94739Z" fill="#C3DDF4"/>
<path d="M48.8086 7.94739C48.0153 7.94739 47.373 8.58434 47.373 9.37107V17.205C47.373 17.991 48.0153 18.6287 48.8086 18.6287C49.6019 18.6287 50.2441 17.991 50.2441 17.205V9.37107C50.2441 8.58434 49.6019 7.94739 48.8086 7.94739Z" fill="#C3DDF4"/>
<path d="M55.6992 7.94739C54.9059 7.94739 54.2637 8.58434 54.2637 9.37107V17.205C54.2637 17.991 54.9059 18.6287 55.6992 18.6287C56.4925 18.6287 57.1348 17.991 57.1348 17.205V9.37107C57.1348 8.58434 56.4925 7.94739 55.6992 7.94739Z" fill="#C3DDF4"/>
<path d="M62.5898 7.94739C61.7966 7.94739 61.1543 8.58434 61.1543 9.37107V17.205C61.1543 17.991 61.7966 18.6287 62.5898 18.6287C63.3831 18.6287 64.0254 17.991 64.0254 17.205V9.37107C64.0254 8.58434 63.3831 7.94739 62.5898 7.94739Z" fill="#C3DDF4"/>
<path d="M69.4805 7.94739C68.6872 7.94739 68.0449 8.58434 68.0449 9.37107V17.205C68.0449 17.991 68.6872 18.6287 69.4805 18.6287C70.2738 18.6287 70.916 17.991 70.916 17.205V9.37107C70.916 8.58434 70.2738 7.94739 69.4805 7.94739Z" fill="#C3DDF4"/>
<path d="M76.3711 7.94739C75.5778 7.94739 74.9355 8.58434 74.9355 9.37107V17.205C74.9355 17.991 75.5778 18.6287 76.3711 18.6287C77.1644 18.6287 77.8066 17.991 77.8066 17.205V9.37107C77.8066 8.58434 77.1644 7.94739 76.3711 7.94739Z" fill="#C3DDF4"/>
<path d="M83.2617 7.94739C82.4684 7.94739 81.8262 8.58434 81.8262 9.37107V17.205C81.8262 17.991 82.4684 18.6287 83.2617 18.6287C84.055 18.6287 84.6973 17.991 84.6973 17.205V9.37107C84.6973 8.58434 84.055 7.94739 83.2617 7.94739Z" fill="#C3DDF4"/>
<path d="M97.8086 69.5667C97.8086 80.7863 88.6376 89.8815 77.3244 89.8815C66.012 89.8815 56.8409 80.7863 56.8409 69.5667C56.8409 58.3478 66.012 49.2526 77.3244 49.2526C88.6376 49.2526 97.8086 58.3478 97.8086 69.5667Z" fill="#1A2B63"/>
<path d="M97.8086 69.5668C97.8086 80.7864 88.6376 89.8817 77.3244 89.8817C66.012 89.8817 56.8409 80.7864 56.8409 69.5668C56.8409 58.3479 66.012 49.2527 77.3244 49.2527C88.6376 49.2527 97.8086 58.3479 97.8086 69.5668Z" fill="#1A2B63"/>
<path d="M77.3244 84.5666C68.9848 84.5666 62.2003 77.8382 62.2003 69.5668C62.2003 61.2961 68.9848 54.5677 77.3244 54.5677C85.6648 54.5677 92.4492 61.2961 92.4492 69.5668C92.4492 77.8382 85.6648 84.5666 77.3244 84.5666Z" fill="white"/>
<path d="M65.0722 69.5667C65.0722 61.7765 71.0917 55.3566 78.7607 54.6373C78.2874 54.5928 77.8089 54.5676 77.3251 54.5676C68.9855 54.5676 62.2003 61.296 62.2003 69.5674C62.2003 77.8381 68.9848 84.5665 77.3251 84.5665C77.8089 84.5665 78.2874 84.5413 78.7607 84.4975C71.0917 83.7775 65.0722 77.3576 65.0722 69.5667Z" fill="#EEF6FF"/>
<path d="M77.3244 54.5676V66.462C79.0515 66.462 80.4557 67.8546 80.4557 69.5667H92.4485C92.4492 61.296 85.6648 54.5676 77.3244 54.5676Z" fill="#FFDD8D"/>
<path d="M77.3244 66.4621C77.8425 66.4621 78.33 66.5889 78.7599 66.8106V58.9574C78.7599 58.1706 78.1177 57.5337 77.3244 57.5337C76.5319 57.5337 75.8889 58.1706 75.8889 58.9574V66.8106C76.3195 66.5889 76.807 66.4621 77.3244 66.4621Z" fill="#0F9390"/>
<path d="M85.6199 68.1431H80.1042C80.3278 68.5702 80.4557 69.0536 80.4557 69.5667C80.4557 70.0806 80.3278 70.5641 80.1042 70.9904H85.6199C86.4124 70.9904 87.0554 70.3535 87.0554 69.5667C87.0554 68.7808 86.4124 68.1431 85.6199 68.1431Z" fill="#0F9390"/>
<path d="M77.3244 72.8619C75.4926 72.8619 74.0024 71.3841 74.0024 69.5674C74.0024 67.75 75.4926 66.2722 77.3244 66.2722C79.157 66.2722 80.6471 67.75 80.6471 69.5674C80.6471 71.3841 79.157 72.8619 77.3244 72.8619Z" fill="#2BB381"/>
<path d="M77.3244 83.1428C76.5319 83.1428 75.8889 82.5059 75.8889 81.7191V80.2005C75.8889 79.4138 76.5319 78.7769 77.3244 78.7769C78.1177 78.7769 78.7599 79.4138 78.7599 80.2005V81.7191C78.7599 82.5059 78.1177 83.1428 77.3244 83.1428Z" fill="#60D882"/>
<path d="M68.6602 79.5836C68.2931 79.5836 67.926 79.445 67.6449 79.1669C67.0849 78.6108 67.0849 77.7091 67.6456 77.153L68.7283 76.0793C69.289 75.5239 70.1975 75.5239 70.7582 76.08C71.319 76.6362 71.319 77.5371 70.7582 78.0932L69.6756 79.1669C69.3952 79.445 69.0281 79.5836 68.6602 79.5836Z" fill="#60D882"/>
<path d="M66.6027 70.9912H65.0714C64.2789 70.9904 63.6359 70.3535 63.6359 69.5667C63.6366 68.7807 64.2789 68.1438 65.0714 68.1438H65.0722H66.6027C67.396 68.1438 68.0382 68.7815 68.0382 69.5675C68.0382 70.3542 67.3952 70.9912 66.6027 70.9912Z" fill="#60D882"/>
<path d="M69.7429 63.4723C69.375 63.4723 69.0079 63.3329 68.7275 63.0549L67.6449 61.9812C67.0849 61.425 67.0849 60.5234 67.6456 59.968C68.2064 59.4119 69.1148 59.4119 69.6756 59.968L70.7582 61.0417C71.3182 61.5986 71.3182 62.4995 70.7575 63.0556C70.4779 63.3337 70.11 63.4723 69.7429 63.4723Z" fill="#60D882"/>
<path d="M85.9893 79.5837C85.6214 79.5837 85.2543 79.445 84.9739 79.1662L83.8913 78.0925C83.3305 77.5364 83.3313 76.6347 83.892 76.0793C84.452 75.5232 85.3612 75.5232 85.922 76.0793L87.0046 77.1538C87.5646 77.7099 87.5646 78.6115 87.0039 79.1669C86.7235 79.445 86.3564 79.5837 85.9893 79.5837Z" fill="#60D882"/>
<path d="M20.0019 36.9444C19.566 36.9444 19.1533 36.7479 18.8812 36.4105L15.723 32.4954C15.2273 31.8815 15.3282 30.985 15.9473 30.4941C16.5663 30.0025 17.4695 30.1026 17.9645 30.7166L20.0019 33.2421L25.1976 26.8015C25.6925 26.1875 26.5965 26.0874 27.2156 26.579C27.8346 27.0699 27.9348 27.9663 27.4399 28.5803L21.1235 36.4105C20.8506 36.7479 20.4378 36.9444 20.0019 36.9444Z" fill="#02AF8E"/>
<path d="M20.0019 62.0724C19.566 62.0724 19.1533 61.8759 18.8812 61.5378L15.723 57.6227C15.2273 57.0087 15.3282 56.113 15.9473 55.6221C16.5663 55.1305 17.4695 55.2298 17.9645 55.8438L20.0019 58.3694L25.1976 51.9287C25.6925 51.3147 26.5965 51.2154 27.2156 51.707C27.8346 52.1979 27.9348 53.0936 27.4399 53.7075L21.1235 61.5378C20.8506 61.8759 20.4378 62.0724 20.0019 62.0724Z" fill="#02AF8E"/>
<path d="M38.7597 49.5914C38.3238 49.5914 37.9111 49.3949 37.639 49.0568L34.4808 45.1417C33.9851 44.5277 34.0852 43.632 34.7051 43.1411C35.3242 42.6495 36.2273 42.7489 36.7223 43.3628L38.7597 45.8884L43.9554 39.4477C44.4511 38.8338 45.3543 38.7344 45.9734 39.226C46.5924 39.7169 46.6926 40.6126 46.1977 41.2266L39.8813 49.0568C39.6084 49.3949 39.1956 49.5914 38.7597 49.5914Z" fill="#02AF8E"/>
</svg>
