<svg width="78" height="78" viewBox="0 0 78 78" fill="none" xmlns="http://www.w3.org/2000/svg">
<g clip-path="url(#clip0_1_1480)">
<path d="M9.41382 9.41382H20.1724V20.28H9.41382V9.41382Z" fill="#DF4D60"/>
<path d="M21.5172 29.5862L10.7586 40.3448L4.03449 39V29.5862C4.02981 25.7442 6.08218 22.1936 9.4138 20.28C12.7385 18.3433 16.8477 18.3433 20.1724 20.28C20.9911 20.7393 21.7423 21.3095 22.4048 21.9745C22.8208 22.3881 23.1989 22.8382 23.5345 23.3193L21.5172 29.5862Z" fill="#24AE5F"/>
<path d="M20.132 56.4827L21.9341 69.5679C22.1334 71.0382 21.1044 72.3921 19.6345 72.5938C19.514 72.6094 19.3928 72.6184 19.2714 72.6207C17.9271 72.6195 16.7901 71.6261 16.6086 70.2941L14.7124 56.4827L9.41377 44.3793L2.68964 47.0689L8.49929 73.7638C9.02776 76.2372 11.2148 78.0037 13.7441 78H64.2558C66.7851 78.0037 68.9722 76.2372 69.5007 73.7638L75.3103 47.0689L24.2069 44.3793L20.132 56.4827ZM32.1683 72.6207H32.0338C30.5993 72.6224 29.4158 71.4982 29.3441 70.0655L28.6314 55.2724C28.5833 54.3115 29.0516 53.3979 29.8597 52.8758C30.6679 52.3538 31.6932 52.3025 32.5494 52.7413C33.4056 53.1802 33.9626 54.0425 34.0107 55.0034L34.7234 69.7965C34.7928 71.2802 33.6515 72.5417 32.1683 72.6207ZM48.6558 70.0655C48.5841 71.4982 47.4007 72.6224 45.9662 72.6207H45.8317C44.3485 72.5417 43.2071 71.2802 43.2765 69.7965L43.9893 55.0034C44.0636 53.518 45.328 52.374 46.8134 52.4482C48.2989 52.5225 49.4429 53.7869 49.3686 55.2724L48.6558 70.0655ZM63.422 55.501L61.3914 70.2941C61.2099 71.6261 60.0729 72.6195 58.7286 72.6207C58.6072 72.6184 58.4859 72.6094 58.3655 72.5938C56.8956 72.3921 55.8666 71.0382 56.0658 69.5679L58.0965 54.7748C58.3498 53.3546 59.6784 52.3871 61.1078 52.582C62.5372 52.7769 63.5583 54.0648 63.422 55.501Z" fill="#2980BA"/>
<path d="M53.7932 4.03442V14.793C53.7904 15.639 53.3924 16.435 52.7173 16.9448L48.6828 19.9706C48.2228 20.3206 47.6605 20.5096 47.0825 20.5086C45.9223 20.5144 44.8891 19.7756 44.5195 18.6759C44.1498 17.5761 44.5271 16.3633 45.4552 15.6672L48.4139 13.4482V4.03442H53.7932Z" fill="#95A5A5"/>
<path d="M53.7931 0V6.72414H45.7241C44.9814 6.72414 44.3793 6.12204 44.3793 5.37931V1.34483C44.3793 0.6021 44.9814 0 45.7241 0H53.7931Z" fill="#ECF0F1"/>
<path d="M59.1724 10.7587H64.5517V21.5173H59.1724V10.7587Z" fill="#95A5A5"/>
<path d="M67.2414 22.862V29.5862H56.4828V22.862C56.4872 21.3784 57.6888 20.1768 59.1724 20.1724H64.5518C66.0354 20.1768 67.237 21.3784 67.2414 22.862Z" fill="#BDC3C7"/>
<path d="M77.2199 7.27553L75.6331 8.86242C75.1305 9.366 74.4483 9.649 73.7368 9.649C73.0254 9.649 72.3432 9.366 71.8406 8.86242L69.7024 6.72415L64.5517 12.1035H59.1724L55.1379 6.72415H51.1034V1.717e-09L72.6206 1.14865e-05C73.3339 -0.00208928 74.0177 0.284045 74.5168 0.79346L77.2199 3.48311C78.2555 4.53518 78.2555 6.22347 77.2199 7.27553Z" fill="#BDC3C7"/>
<path d="M26.8965 20.2665V7.62513C26.8933 7.30636 27.061 7.01026 27.3361 6.84911C27.6111 6.68796 27.9514 6.68644 28.2279 6.84513C29.4792 7.48443 30.8712 7.7989 32.2758 7.75961C33.6805 7.7989 35.0724 7.48443 36.3238 6.84513C36.6003 6.68644 36.9406 6.68796 37.2156 6.84911C37.4907 7.01026 37.6584 7.30636 37.6552 7.62513L37.6552 20.28" fill="#26B99A"/>
<path d="M32.2759 14.793C33.0186 14.793 33.6207 14.1909 33.6207 13.4482C33.6207 12.7055 33.0186 12.1034 32.2759 12.1034C31.5331 12.1034 30.931 12.7055 30.931 13.4482C30.931 14.1909 31.5331 14.793 32.2759 14.793Z" fill="#33907C"/>
<path d="M12.1034 39V47.069H2.68966C1.20604 47.0645 0.00443094 45.8629 0 44.3793V41.6897C0.00443094 40.206 1.20604 39.0044 2.68966 39H12.1034Z" fill="#3B97D3"/>
<path d="M72.1365 39.0001L61.8621 41.6897L49.6376 39.0001C52.2647 36.6819 54.228 33.7068 55.3262 30.3797L56.4827 26.8966H67.2414C69.3624 30.7155 71.0064 34.7804 72.1365 39.0001Z" fill="#FF5364"/>
<path d="M43.0345 29.5862V39H24.2069V32.2759C24.2024 30.7923 23.0008 29.5907 21.5172 29.5862C21.5157 27.3374 22.2214 25.145 23.5345 23.3193C24.4287 22.0772 25.5742 21.0371 26.8965 20.2666C30.2261 18.343 34.3304 18.3482 37.6551 20.28C38.4738 20.7393 39.225 21.3095 39.8876 21.9745C41.9029 23.995 43.0346 26.7324 43.0345 29.5862Z" fill="#81CCB8"/>
<path d="M39 30.931V39H36.3104V30.931C36.3104 30.1883 36.9125 29.5862 37.6552 29.5862C38.3979 29.5862 39 30.1883 39 30.931Z" fill="white"/>
<path d="M78 41.6897V44.3793C77.9955 45.8629 76.7939 47.0645 75.3103 47.069H21.5172V39H75.3103C76.7939 39.0044 77.9955 40.206 78 41.6897Z" fill="#3B97D3"/>
<path d="M21.5173 29.5862H12.1035C10.618 29.5862 9.41382 30.7904 9.41382 32.2758V53.7931C9.41382 55.2785 10.618 56.4827 12.1035 56.4827H21.5173C23.0027 56.4827 24.2069 55.2785 24.2069 53.7931V32.2758C24.2069 30.7904 23.0027 29.5862 21.5173 29.5862Z" fill="#F3D55B"/>
<path d="M20.1724 9.41373V12.1034H9.41382V9.41373C9.41382 6.44282 11.8222 4.03442 14.7931 4.03442C17.764 4.03442 20.1724 6.44282 20.1724 9.41373Z" fill="#FF5364"/>
</g>
<defs>
<clipPath id="clip0_1_1480">
<rect width="78" height="78" fill="white"/>
</clipPath>
</defs>
</svg>
