<svg width="92" height="89" viewBox="0 0 92 89" fill="none" xmlns="http://www.w3.org/2000/svg">
<path d="M29.6056 51.7415H23.6058C20.36 51.7415 17.7044 54.3971 17.7044 57.6429V82.4288C17.7044 85.7074 20.36 88.3302 23.6058 88.3302H29.6056V51.7415Z" fill="#4469FF"/>
<path d="M73.7679 62.4952L68.3255 82.101C67.3091 85.773 63.9978 88.3303 60.1618 88.3303H34.5235V51.7415L45.3427 36.4306C46.4902 34.8241 48.359 33.8406 50.3589 33.8406C53.8342 33.8406 56.4898 36.6929 56.4898 39.9715C56.4898 40.5288 56.4243 41.0862 56.2603 41.6436L53.408 51.7415H65.6042C71.2106 51.7415 75.276 57.0856 73.7679 62.4952Z" fill="#4469FF"/>
<path d="M13.3833 14.0019L15.8455 18.9886C16.0782 19.4575 16.5241 19.7853 17.0454 19.8607L22.5501 20.6607C23.855 20.8509 24.3763 22.4541 23.4321 23.3753L19.4486 27.2572C19.0748 27.6244 18.9011 28.1489 18.9896 28.667L19.9305 34.1487C20.1535 35.4503 18.7896 36.4404 17.6192 35.8273L12.6948 33.2405C12.2325 32.9979 11.6784 32.9979 11.2128 33.2405L6.28844 35.8273C5.12127 36.4404 3.75411 35.4503 3.97705 34.1487L4.918 28.667C5.00652 28.1489 4.83603 27.6244 4.459 27.2572L0.482101 23.3753C-0.462126 22.4541 0.0591651 20.8509 1.36403 20.6607L6.86874 19.8607C7.38676 19.7853 7.83592 19.4575 8.0687 18.9886L10.5309 14.0019C11.1145 12.8184 12.7997 12.8184 13.3833 14.0019Z" fill="#FDAA54"/>
<path d="M47.3262 0.887671L49.7884 5.87437C50.0212 6.3432 50.4671 6.67106 50.9884 6.74647L56.4931 7.54644C57.798 7.73659 58.3193 9.33981 57.375 10.2611L53.3916 14.1429C53.0178 14.5101 52.8441 15.0347 52.9326 15.5527L53.8735 21.0345C54.0965 22.336 52.7326 23.3262 51.5621 22.7131L46.6377 20.1263C46.1755 19.8837 45.6214 19.8837 45.1558 20.1263L40.2314 22.7131C39.0642 23.3262 37.6971 22.336 37.92 21.0345L38.861 15.5527C38.9495 15.0347 38.779 14.5101 38.402 14.1429L34.4251 10.2611C33.4809 9.33981 34.0021 7.73659 35.307 7.54644L40.8117 6.74647C41.3297 6.67106 41.7789 6.34648 42.0117 5.87437L44.4739 0.887671C45.0575 -0.295891 46.7426 -0.295891 47.3262 0.887671Z" fill="#FDAA54"/>
<path d="M81.2692 14.0019L83.7314 18.9886C83.9642 19.4575 84.4101 19.7853 84.9314 19.8607L90.4361 20.6607C91.7409 20.8509 92.2622 22.4541 91.318 23.3753L87.3346 27.2572C86.9608 27.6244 86.787 28.1489 86.8755 28.667L87.8165 34.1487C88.0394 35.4503 86.6756 36.4404 85.5051 35.8273L80.5807 33.2405C80.1184 32.9979 79.5643 32.9979 79.0988 33.2405L74.1744 35.8273C73.0072 36.4404 71.6401 35.4503 71.863 34.1487L72.8039 28.667C72.8925 28.1489 72.722 27.6244 72.345 27.2572L68.3615 23.3753C67.4173 22.4541 67.9386 20.8509 69.2434 20.6607L74.7481 19.8607C75.2662 19.7853 75.7153 19.4607 75.9481 18.9886L78.4103 14.0019C79.0004 12.8184 80.6856 12.8184 81.2692 14.0019Z" fill="#FDAA54"/>
</svg>
