<svg width="75" height="101" viewBox="0 0 75 101" fill="none" xmlns="http://www.w3.org/2000/svg">
<path fill-rule="evenodd" clip-rule="evenodd" d="M70.3587 43.605H13.9548C11.5772 43.605 9.63788 45.5441 9.63788 47.9219V83.2653C9.63788 85.6431 11.5772 87.5822 13.9548 87.5822H46.0306L64.308 100.706V87.5822H70.3589C72.7367 87.5822 74.6758 85.6431 74.6758 83.2653V47.9219C74.6756 45.5441 72.7365 43.605 70.3587 43.605Z" fill="#72D561"/>
<path fill-rule="evenodd" clip-rule="evenodd" d="M10.0594 85.1223C10.7558 86.5749 12.2415 87.5822 13.9549 87.5822H46.0308L64.3082 100.706V87.5822H70.359C72.7368 87.5822 74.6759 85.6431 74.6759 83.2653V47.9218C74.6759 46.2082 73.6687 44.7225 72.216 44.0261C72.4859 44.5892 72.6373 45.2191 72.6373 45.8833V81.2268C72.6373 83.6045 70.6983 85.5436 68.3205 85.5436H62.2696V98.6673L43.9922 85.5436H11.9163C11.2522 85.5434 10.6224 85.392 10.0594 85.1223Z" fill="#42C345"/>
<path fill-rule="evenodd" clip-rule="evenodd" d="M4.31693 33.9669H60.7209C63.0987 33.9669 65.0378 35.906 65.0378 38.2838V73.6271C65.0378 76.0049 63.0987 77.944 60.7209 77.944H28.645L10.3676 91.0677V77.9442H4.31693C1.93915 77.9442 6.10352e-05 76.0051 6.10352e-05 73.6273V38.2838C6.10352e-05 35.906 1.93915 33.9669 4.31693 33.9669Z" fill="#FFDA2D"/>
<path fill-rule="evenodd" clip-rule="evenodd" d="M64.6164 75.4841C63.9201 76.9368 62.4346 77.9441 60.7209 77.9441H28.6451L10.3677 91.0678V77.9443H4.317C1.93921 77.9443 0.00012207 76.0052 0.00012207 73.6274V38.2839C0.00012207 36.5703 1.00738 35.0846 2.46006 34.3882C2.19016 34.9512 2.03869 35.5812 2.03869 36.2453V71.5886C2.03869 73.9664 3.97778 75.9055 6.35556 75.9055H12.4062V89.029L30.6836 75.9055H62.7595C63.4237 75.9055 64.0534 75.754 64.6164 75.4841Z" fill="#FFC700"/>
<path fill-rule="evenodd" clip-rule="evenodd" d="M12.873 46.5912C11.9723 46.5912 11.2421 45.861 11.2421 44.9603C11.2421 44.0597 11.9723 43.3295 12.873 43.3295H52.1648C53.0654 43.3295 53.7956 44.0597 53.7956 44.9603C53.7956 45.861 53.0654 46.5912 52.1648 46.5912H12.873ZM12.873 68.5812C11.9723 68.5812 11.2421 67.851 11.2421 66.9504C11.2421 66.0497 11.9723 65.3195 12.873 65.3195H52.1648C53.0654 65.3195 53.7956 66.0497 53.7956 66.9504C53.7956 67.851 53.0654 68.5812 52.1648 68.5812H12.873ZM12.873 57.5862C11.9723 57.5862 11.2421 56.856 11.2421 55.9553C11.2421 55.0547 11.9723 54.3245 12.873 54.3245H52.1648C53.0654 54.3245 53.7956 55.0547 53.7956 55.9553C53.7956 56.856 53.0654 57.5862 52.1648 57.5862H12.873Z" fill="#E6F8FF"/>
<path d="M32.5188 47.8289C45.7264 47.8289 56.4333 37.122 56.4333 23.9145C56.4333 10.7069 45.7264 0 32.5188 0C19.3112 0 8.60437 10.7069 8.60437 23.9145C8.60437 37.122 19.3112 47.8289 32.5188 47.8289Z" fill="#465759"/>
<path fill-rule="evenodd" clip-rule="evenodd" d="M47.7903 5.51147C53.0704 9.89827 56.4332 16.5134 56.4332 23.9147C56.4332 37.1221 45.7262 47.8291 32.5188 47.8291C25.1175 47.8291 18.5024 44.4665 14.1158 39.1864C18.2582 42.6279 23.5809 44.6979 29.3873 44.6979C42.5948 44.6979 53.3018 33.9909 53.3018 20.7834C53.3018 14.9768 51.2318 9.65405 47.7903 5.51147Z" fill="#3E4D4F"/>
<path fill-rule="evenodd" clip-rule="evenodd" d="M48.0805 42.0722C43.8978 45.6603 38.4617 47.8289 32.5189 47.8289C26.5759 47.8289 21.14 45.6603 16.9573 42.0724C19.9927 36.5901 25.8407 32.8564 32.5189 32.8564C39.197 32.8564 45.0451 36.5899 48.0805 42.0722Z" fill="#64B5F6"/>
<path fill-rule="evenodd" clip-rule="evenodd" d="M48.0805 42.0722C47.1527 42.8681 46.1628 43.5936 45.1197 44.2417C42.7704 38.1918 37.1927 33.7194 30.5305 32.969C31.1836 32.8954 31.8468 32.8564 32.5189 32.8564C39.197 32.8564 45.0451 36.5899 48.0805 42.0722Z" fill="#42A5F5"/>
<path fill-rule="evenodd" clip-rule="evenodd" d="M16.9574 42.0724C17.0762 41.8578 17.1988 41.6457 17.326 41.4368C20.867 43.5094 24.9883 44.6979 29.3874 44.6979C35.5781 44.6979 41.2192 42.3456 45.4662 38.486C46.4789 39.565 47.359 40.7692 48.0804 42.0724C43.8977 45.6605 38.4617 47.8291 32.5188 47.8291C26.5758 47.8291 21.1399 45.6605 16.9574 42.0724Z" fill="#42A5F5"/>
<path fill-rule="evenodd" clip-rule="evenodd" d="M48.0806 42.0723C47.1528 42.8682 46.1629 43.5937 45.1198 44.2417C44.5887 42.8745 43.8931 41.5879 43.0571 40.4064C43.9013 39.8172 44.7065 39.1763 45.4663 38.4858C46.4791 39.5649 47.3591 40.7692 48.0806 42.0723Z" fill="#2D90F1"/>
<path d="M34.7225 31.6519C39.8842 30.4318 43.0794 25.2584 41.8593 20.0967C40.6391 14.9351 35.4657 11.7398 30.3041 12.96C25.1424 14.1801 21.9472 19.3535 23.1673 24.5152C24.3874 29.6768 29.5609 32.8721 34.7225 31.6519Z" fill="#FFD6BD"/>
<path fill-rule="evenodd" clip-rule="evenodd" d="M24.7896 28.0265C26.5391 30.3937 29.3495 31.9291 32.5188 31.9291C37.8236 31.9291 42.124 27.6285 42.124 22.3238C42.124 19.0245 40.4605 16.1143 37.9266 14.3848C39.1053 15.9797 39.8025 17.9521 39.8025 20.0875C39.8025 25.3922 35.5021 29.6926 30.1971 29.6926C28.1918 29.6928 26.33 29.0778 24.7896 28.0265Z" fill="#F9C6AA"/>
</svg>
