<svg width="84" height="84" viewBox="0 0 84 84" fill="none" xmlns="http://www.w3.org/2000/svg">
<path d="M71.831 8.11263V82.3098C71.831 83.2428 71.0738 83.9999 70.1409 83.9999H13.8592C12.9262 83.9999 12.169 83.2428 12.169 82.3098V8.11263C12.169 7.17967 12.9262 6.42249 13.8592 6.42249H70.1409C71.0738 6.42249 71.831 7.17967 71.831 8.11263Z" fill="#FAD207"/>
<path d="M14.8732 14.7631V80.0989C14.8732 80.7599 15.409 81.2957 16.07 81.2957H50.1732C50.6214 81.2957 51.0514 81.1175 51.3683 80.8006L64.3944 67.7746V13.8591H18.241L17.9561 11.802L15.6254 13.3573C15.1553 13.6708 14.8732 14.1983 14.8732 14.7631Z" fill="#FAA515"/>
<path d="M66.7606 13.1831V65.4084L56.6197 69.1267L53.2394 78.9295H18.9296C17.9961 78.9295 17.2394 78.1729 17.2394 77.2394V13.1831C17.2394 12.2496 17.9961 11.4929 18.9296 11.4929H65.0704C66.0039 11.4929 66.7606 12.2496 66.7606 13.1831Z" fill="#F5F5F5"/>
<path d="M66.7606 65.4084L53.2394 78.9296V67.0986C53.2394 66.1651 53.9961 65.4084 54.9296 65.4084H66.7606Z" fill="#E6E6E6"/>
<path d="M59.0096 11.4929V14.7769C59.0096 17.1059 57.1133 19.0022 54.7842 19.0022H29.2158C26.8868 19.0022 24.9904 17.1059 24.9904 14.7769V11.4929H59.0096Z" fill="#E6E6E6"/>
<path d="M24.9904 6.42249H59.0096V11.4929H24.9904V6.42249Z" fill="#FAA515"/>
<path d="M56.474 6.41896V14.7762C56.474 15.7097 55.7174 16.4663 54.7839 16.4663H29.2161C28.2827 16.4663 27.526 15.7097 27.526 14.7762V6.41896L36.9075 6.41913C36.7827 5.88318 36.7403 5.31563 36.7944 4.73051C37.028 2.20459 39.0984 0.187408 41.629 0.0128162C44.6845 -0.197944 47.2285 2.21828 47.2285 5.22859C47.2285 5.63811 47.1813 6.03682 47.0922 6.41913L56.474 6.41896Z" fill="#50758D"/>
<path d="M29.052 33.481C28.725 33.481 28.4099 33.3546 28.1735 33.1271L23.8912 29.0096C23.3865 28.5243 23.3708 27.7218 23.856 27.2173C24.3412 26.7128 25.1439 26.6971 25.6482 27.1822L28.9759 30.3821L34.1946 24.458C34.6572 23.9329 35.4583 23.8818 35.9838 24.3448C36.5089 24.8075 36.5598 25.6087 36.097 26.134L30.0031 33.0515C29.7744 33.311 29.4499 33.4658 29.1044 33.48C29.087 33.4807 29.0694 33.481 29.052 33.481Z" fill="#5ED297"/>
<path d="M58.1408 30.0221H40.2254C39.5251 30.0221 38.9577 29.4548 38.9577 28.7545C38.9577 28.0543 39.5251 27.4869 40.2254 27.4869H58.1408C58.8411 27.4869 59.4085 28.0543 59.4085 28.7545C59.4085 29.4548 58.8411 30.0221 58.1408 30.0221Z" fill="#50758D"/>
<path d="M29.052 48.3933C28.725 48.3933 28.4099 48.2669 28.1735 48.0394L23.8912 43.9219C23.3865 43.4366 23.3708 42.6341 23.856 42.1296C24.3412 41.625 25.1439 41.6092 25.6482 42.0945L28.978 45.2961L34.2054 39.3855C34.669 38.8611 35.4701 38.8119 35.9948 39.2758C36.5192 39.7396 36.5684 40.5407 36.1045 41.0652L30.0015 47.9655C29.7727 48.2241 29.4483 48.3783 29.1032 48.3923C29.0861 48.393 29.0689 48.3933 29.052 48.3933Z" fill="#5ED297"/>
<path d="M58.1408 44.8732H40.2254C39.5251 44.8732 38.9577 44.3058 38.9577 43.6056C38.9577 42.9054 39.5251 42.338 40.2254 42.338H58.1408C58.8411 42.338 59.4085 42.9054 59.4085 43.6056C59.4085 44.3058 58.8411 44.8732 58.1408 44.8732Z" fill="#50758D"/>
<path d="M58.1408 60.2757H55.1831C54.4829 60.2757 53.9155 59.7083 53.9155 59.0081C53.9155 58.3079 54.4829 57.7405 55.1831 57.7405H58.1408C58.8411 57.7405 59.4085 58.3079 59.4085 59.0081C59.4085 59.7083 58.8411 60.2757 58.1408 60.2757Z" fill="#50758D"/>
<path d="M49.2676 60.2757H40.2254C39.5251 60.2757 38.9577 59.7083 38.9577 59.0081C38.9577 58.3079 39.5251 57.7405 40.2254 57.7405H49.2676C49.9678 57.7405 50.5352 58.3079 50.5352 59.0081C50.5352 59.7083 49.9678 60.2757 49.2676 60.2757Z" fill="#50758D"/>
<path d="M33.6338 64.163H25.8592C25.1589 64.163 24.5916 63.5956 24.5916 62.8954V55.1208C24.5916 54.4205 25.1589 53.8531 25.8592 53.8531H33.6338C34.334 53.8531 34.9014 54.4205 34.9014 55.1208V62.8954C34.9014 63.5955 34.334 64.163 33.6338 64.163ZM27.1268 61.6278H32.3662V56.3884H27.1268V61.6278Z" fill="#FD646F"/>
</svg>
