<svg width="75" height="90" viewBox="0 0 75 90" fill="none" xmlns="http://www.w3.org/2000/svg">
<path d="M50.0826 77.528L36.1649 89.7463H5.4172C2.42525 89.7463 9.50032e-09 87.3208 9.50032e-09 84.329V5.4172C-0.000175276 2.42543 2.42525 0 5.4172 0H62.1631C65.1551 0 67.5803 2.42543 67.5803 5.4172V36.091L50.0826 77.528Z" fill="#EAF6FF"/>
<path d="M41.5821 36.0909C38.5902 36.0909 36.1649 38.5164 36.1649 41.5081V89.7462H62.1631C65.1551 89.7462 67.5803 87.3208 67.5803 84.329V36.0909H41.5821Z" fill="#D7ECFF"/>
<path d="M20.4524 62.3645C27.2533 62.3645 32.7665 56.8513 32.7665 50.0504C32.7665 43.2494 27.2533 37.7362 20.4524 37.7362C13.6514 37.7362 8.13818 43.2494 8.13818 50.0504C8.13818 56.8513 13.6514 62.3645 20.4524 62.3645Z" fill="#FFEB58"/>
<path d="M69.7414 89.7463H47.1349C44.2305 89.7463 41.8763 87.392 41.8763 84.4877V47.445C41.8763 44.5407 44.2305 42.1864 47.1349 42.1864H69.7414C72.6458 42.1864 75 44.5407 75 47.445V84.4877C75 87.392 72.6456 89.7463 69.7414 89.7463Z" fill="#0064C8"/>
<path d="M67.2918 58.512H49.5845C48.7941 58.512 48.1533 57.8711 48.1533 57.0808V49.9123C48.1533 49.1219 48.7941 48.4811 49.5845 48.4811H67.2918C68.0822 48.4811 68.723 49.1219 68.723 49.9123V57.0808C68.723 57.8711 68.0822 58.512 67.2918 58.512Z" fill="#EAF6FF"/>
<path d="M63.3025 78.3069H67.9429C68.6249 78.3069 69.1777 77.7541 69.1777 77.072V64.7063C69.1777 64.0243 68.6249 63.4714 67.9429 63.4714H63.3025C62.6205 63.4714 62.0676 64.0243 62.0676 64.7063V77.072C62.0676 77.7541 62.6205 78.3069 63.3025 78.3069Z" fill="#ED5A96"/>
<path d="M22.0092 48.7119C21.0323 48.3666 19.9542 47.9511 19.365 47.4892C19.2639 47.4098 19.1913 47.1708 19.2485 46.8673C19.2763 46.7199 19.405 46.2272 19.8939 46.08C20.9424 45.7643 21.9896 46.2668 22.062 46.3278L22.317 46.5147C22.8306 46.891 23.5465 46.8133 23.9673 46.3353C24.4345 45.8048 24.3626 44.9874 23.8041 44.5541C23.2339 44.1115 22.5093 43.7464 21.7389 43.5308V42.7318C21.7389 41.9839 21.1326 41.3776 20.3847 41.3776C19.6367 41.3776 19.0304 41.9839 19.0304 42.7318V43.5145C17.7754 43.9266 16.8423 45.0102 16.5869 46.3657C16.3452 47.6482 16.7692 48.8954 17.6937 49.6204C18.5885 50.3222 19.8628 50.8258 21.1067 51.2656C22.0061 51.5836 22.033 52.2691 21.9691 52.6497C21.8602 53.2975 21.3151 53.9976 20.3757 54.0037C19.3391 54.0111 19.0718 53.9682 18.3021 53.4646C17.6311 53.0256 16.7152 53.2586 16.3461 53.9981C16.0334 54.6246 16.2847 55.3864 16.8728 55.7661C17.6874 56.2919 18.3138 56.5349 19.0304 56.64V57.3685C19.0304 58.1165 19.6367 58.7228 20.3847 58.7228C21.1326 58.7228 21.7389 58.1165 21.7389 57.3685V56.4958C23.3628 55.9622 24.401 54.5214 24.6401 53.0986C24.9682 51.1471 23.9109 49.3841 22.0092 48.7119Z" fill="#F8B718"/>
<path d="M50.0059 66.1802H48.1533C47.4053 66.1802 46.799 65.5739 46.799 64.8259C46.799 64.078 47.4053 63.4717 48.1533 63.4717H50.0059C50.7538 63.4717 51.3601 64.078 51.3601 64.8259C51.3601 65.5739 50.7538 66.1802 50.0059 66.1802Z" fill="#5CB6FF"/>
<path d="M57.0944 66.1802H55.2418C54.4938 66.1802 53.8875 65.5739 53.8875 64.8259C53.8875 64.078 54.4938 63.4717 55.2418 63.4717H57.0944C57.8423 63.4717 58.4486 64.078 58.4486 64.8259C58.4486 65.5739 57.8423 66.1802 57.0944 66.1802Z" fill="#5CB6FF"/>
<path d="M50.0059 72.5314H48.1533C47.4053 72.5314 46.799 71.9251 46.799 71.1771C46.799 70.4292 47.4053 69.8229 48.1533 69.8229H50.0059C50.7538 69.8229 51.3601 70.4292 51.3601 71.1771C51.3601 71.9249 50.7538 72.5314 50.0059 72.5314Z" fill="#5CB6FF"/>
<path d="M57.0944 72.5314H55.2418C54.4938 72.5314 53.8875 71.9251 53.8875 71.1771C53.8875 70.4292 54.4938 69.8229 55.2418 69.8229H57.0944C57.8423 69.8229 58.4486 70.4292 58.4486 71.1771C58.4486 71.9249 57.8423 72.5314 57.0944 72.5314Z" fill="#5CB6FF"/>
<path d="M50.0059 78.8823H48.1533C47.4053 78.8823 46.799 78.276 46.799 77.5281C46.799 76.7801 47.4053 76.1738 48.1533 76.1738H50.0059C50.7538 76.1738 51.3601 76.7801 51.3601 77.5281C51.3601 78.276 50.7538 78.8823 50.0059 78.8823Z" fill="#5CB6FF"/>
<path d="M57.0944 78.8823H55.2418C54.4938 78.8823 53.8875 78.276 53.8875 77.5281C53.8875 76.7801 54.4938 76.1738 55.2418 76.1738H57.0944C57.8423 76.1738 58.4486 76.7801 58.4486 77.5281C58.4486 78.276 57.8423 78.8823 57.0944 78.8823Z" fill="#5CB6FF"/>
<path d="M68.7229 84.806H48.1531C47.4051 84.806 46.7988 84.1997 46.7988 83.4518C46.7988 82.7038 47.4051 82.0975 48.1531 82.0975H68.7229C69.4708 82.0975 70.0771 82.7038 70.0771 83.4518C70.0771 84.1997 69.471 84.806 68.7229 84.806Z" fill="#5CB6FF"/>
<path d="M57.5664 10.0678V9.8462C57.5664 9.09826 56.9601 8.49194 56.2122 8.49194H52.4079C51.66 8.49194 51.0537 9.09826 51.0537 9.8462C51.0537 10.5941 51.66 11.2005 52.4079 11.2005H52.691L43.6388 18.6238L39.6836 14.5318C39.1832 14.0141 38.3649 13.9784 37.8214 14.4508L28.0583 22.9369C27.4937 23.4277 27.4339 24.2831 27.9246 24.8475C28.1924 25.1556 28.5689 25.3134 28.9474 25.3134C29.2623 25.3134 29.5789 25.2042 29.8352 24.9812L38.6287 17.3379L42.5586 21.4037C43.0489 21.9108 43.8459 21.9569 44.3913 21.5097L54.8577 12.9265V13.6502C54.8577 14.3982 55.464 15.0045 56.212 15.0045C56.9599 15.0045 57.5662 14.3982 57.5662 13.6502V10.0683C57.5664 10.0681 57.5664 10.0679 57.5664 10.0678Z" fill="#ED5A96"/>
<path d="M59.8639 30.8889H25.9885C23.5423 30.8889 21.5521 28.8987 21.5521 26.4524V9.27247C21.5521 8.52453 22.1584 7.91821 22.9063 7.91821C23.6543 7.91821 24.2606 8.52453 24.2606 9.27247V26.4524C24.2606 27.4052 25.0357 28.1804 25.9885 28.1804H59.8641C60.612 28.1804 61.2183 28.7867 61.2183 29.5346C61.2183 30.2826 60.6118 30.8889 59.8639 30.8889Z" fill="#0064C8"/>
<path d="M16.2365 11.6472H7.71626C6.96831 11.6472 6.362 11.0409 6.362 10.293C6.362 9.54503 6.96831 8.93872 7.71626 8.93872H16.2365C16.9845 8.93872 17.5908 9.54503 17.5908 10.293C17.5908 11.0409 16.9845 11.6472 16.2365 11.6472Z" fill="#5CB6FF"/>
<path d="M16.2365 17.7211H7.71626C6.96831 17.7211 6.362 17.1148 6.362 16.3668C6.362 15.6189 6.96831 15.0126 7.71626 15.0126H16.2365C16.9845 15.0126 17.5908 15.6189 17.5908 16.3668C17.5908 17.1146 16.9845 17.7211 16.2365 17.7211Z" fill="#5CB6FF"/>
<path d="M16.2365 23.7947H7.71626C6.96831 23.7947 6.362 23.1884 6.362 22.4404C6.362 21.6925 6.96831 21.0862 7.71626 21.0862H16.2365C16.9845 21.0862 17.5908 21.6925 17.5908 22.4404C17.5908 23.1882 16.9845 23.7947 16.2365 23.7947Z" fill="#5CB6FF"/>
<path d="M16.2365 29.8683H7.71626C6.96831 29.8683 6.362 29.262 6.362 28.514C6.362 27.7661 6.96831 27.1598 7.71626 27.1598H16.2365C16.9845 27.1598 17.5908 27.7661 17.5908 28.514C17.5908 29.262 16.9845 29.8683 16.2365 29.8683Z" fill="#5CB6FF"/>
<path d="M32.3446 70.6184H7.71626C6.96831 70.6184 6.362 70.0121 6.362 69.2642C6.362 68.5162 6.96831 67.9099 7.71626 67.9099H32.3446C33.0925 67.9099 33.6988 68.5162 33.6988 69.2642C33.699 70.0121 33.0925 70.6184 32.3446 70.6184Z" fill="#5CB6FF"/>
<path d="M32.3446 76.58H7.71626C6.96831 76.58 6.362 75.9737 6.362 75.2257C6.362 74.4778 6.96831 73.8715 7.71626 73.8715H32.3446C33.0925 73.8715 33.6988 74.4778 33.6988 75.2257C33.6988 75.9737 33.0925 76.58 32.3446 76.58Z" fill="#5CB6FF"/>
<path d="M32.3446 82.5416H7.71626C6.96831 82.5416 6.362 81.9353 6.362 81.1874C6.362 80.4394 6.96831 79.8331 7.71626 79.8331H32.3446C33.0925 79.8331 33.6988 80.4394 33.6988 81.1874C33.699 81.9352 33.0925 82.5416 32.3446 82.5416Z" fill="#5CB6FF"/>
</svg>
