<svg width="100" height="100" viewBox="0 0 100 100" fill="none" xmlns="http://www.w3.org/2000/svg">
<g filter="url(#filter0_i_1_1337)">
<rect x="41.2347" y="6.10568" width="63.1543" height="63.1543" rx="9" transform="rotate(33.7962 41.2347 6.10568)" fill="#34E0A1"/>
</g>
<path d="M68.8036 55.868L74.1514 54.5731L67.2785 49.9836C63.2943 40.1669 53.7134 33.7692 43.1193 33.8511L36.2283 29.2496L37.0817 34.6854C30.8687 35.638 26.6162 41.4445 27.5831 47.6541C28.5499 53.8637 34.3707 58.1248 40.5837 57.1721C40.5925 57.1709 40.6012 57.1696 40.61 57.1684L41.446 62.4941L46.6819 61.2261C47.3488 64.0153 49.0479 66.4507 51.438 68.042C56.6708 71.5362 63.7428 70.1392 67.229 64.9185C69.0079 62.2616 69.58 58.9746 68.8033 55.8685L68.8036 55.868ZM34.529 52.3317C30.9877 49.967 30.0295 45.1861 32.3888 41.6529C34.7481 38.1198 39.5312 37.1727 43.0725 39.5375C46.6139 41.9022 47.5721 46.6831 45.2128 50.2163C42.8535 53.7494 38.0704 54.6965 34.529 52.3317ZM48.4009 52.0788C51.2121 47.8689 50.5546 42.2071 47.5385 37.9595C53.3571 39.1078 58.4807 42.5291 61.7711 47.4634C56.6921 46.3063 51.2117 47.8695 48.4009 52.0788ZM53.4789 64.9856C49.9375 62.6209 48.9793 57.84 51.3386 54.3068C53.6979 50.7737 58.481 49.8266 62.0223 52.1914C65.5637 54.5561 66.5219 59.337 64.1626 62.8702C61.8033 66.4033 57.0202 67.3504 53.4789 64.9856ZM59.9898 55.2352C58.1334 53.9955 55.6253 54.4922 54.3886 56.3443C53.1518 58.1964 53.6542 60.7033 55.5107 61.9429C57.3671 63.1825 59.8751 62.6859 61.1119 60.8338C62.349 58.9812 61.8468 56.4752 59.9904 55.2356L59.9898 55.2352ZM42.1624 48.1794C40.9257 50.0315 38.4182 50.5285 36.5614 49.2894C34.705 48.0497 34.2022 45.5434 35.4384 43.6909C36.6752 41.8388 39.1827 41.3418 41.0394 42.5809L41.04 42.5813C42.8964 43.8209 43.3987 46.3269 42.1624 48.1794Z" fill="black"/>
<defs>
<filter id="filter0_i_1_1337" x="9.59021" y="7.59012" width="80.6427" height="82.6427" filterUnits="userSpaceOnUse" color-interpolation-filters="sRGB">
<feFlood flood-opacity="0" result="BackgroundImageFix"/>
<feBlend mode="normal" in="SourceGraphic" in2="BackgroundImageFix" result="shape"/>
<feColorMatrix in="SourceAlpha" type="matrix" values="0 0 0 0 0 0 0 0 0 0 0 0 0 0 0 0 0 0 127 0" result="hardAlpha"/>
<feOffset dy="-2"/>
<feGaussianBlur stdDeviation="3.15"/>
<feComposite in2="hardAlpha" operator="arithmetic" k2="-1" k3="1"/>
<feColorMatrix type="matrix" values="0 0 0 0 0 0 0 0 0 0 0 0 0 0 0 0 0 0 0.25 0"/>
<feBlend mode="normal" in2="shape" result="effect1_innerShadow_1_1337"/>
</filter>
</defs>
</svg>
