<svg width="89" height="89" viewBox="0 0 89 89" fill="none" xmlns="http://www.w3.org/2000/svg">
<g filter="url(#filter0_i_1_1348)">
<rect x="30.4455" width="65.6876" height="65.6876" rx="9" transform="rotate(27.6125 30.4455 0)" fill="#0C3B7C"/>
</g>
<path d="M35.2961 52.0626L30.0354 49.2028L33.0126 43.3475C33.6487 42.0964 34.5015 41.7281 35.7277 42.2037L39.3185 44.1515C41.8793 45.5406 42.7721 47.9415 41.5357 50.373C40.2994 52.8045 37.9 53.4723 35.296 52.0629L35.2961 52.0626ZM38.0632 33.4141L38.847 31.8727C39.5326 30.5242 40.472 30.2152 41.859 30.8618L44.5536 32.3234C46.8626 33.576 47.5931 35.612 46.4982 37.7653C45.6649 39.4043 43.7428 40.8038 41.0825 39.3608L36.3463 36.7916L38.0636 33.414L38.0632 33.4141ZM47.0756 45.7579L46.3772 44.7443L47.5442 44.534C48.9044 44.2854 51.4084 43.4252 52.9336 40.4255C55.2697 35.831 52.9468 30.7905 47.0208 27.576L40.2584 23.9077L40.2596 23.9053L39.4891 23.4873C37.7018 22.5957 35.6188 23.1614 34.7644 24.7952L21.5087 50.8657L32.3573 56.7504C38.9441 60.3234 44.8918 59.2933 47.5194 54.1255C48.9343 51.3428 48.7697 48.2199 47.0756 45.7579Z" fill="white"/>
<path d="M46.8327 60.1962C47.8368 58.2214 50.3609 57.5523 52.4698 58.6963C54.5787 59.8402 55.4914 62.3737 54.4874 64.3485C53.4833 66.3233 50.9514 66.9882 48.8371 65.8413C46.7228 64.6943 45.8299 62.1686 46.8327 60.1962Z" fill="#00BAFC"/>
<defs>
<filter id="filter0_i_1_1348" x="3.14443" y="1.14449" width="82.3625" height="84.3624" filterUnits="userSpaceOnUse" color-interpolation-filters="sRGB">
<feFlood flood-opacity="0" result="BackgroundImageFix"/>
<feBlend mode="normal" in="SourceGraphic" in2="BackgroundImageFix" result="shape"/>
<feColorMatrix in="SourceAlpha" type="matrix" values="0 0 0 0 0 0 0 0 0 0 0 0 0 0 0 0 0 0 127 0" result="hardAlpha"/>
<feOffset dy="-2"/>
<feGaussianBlur stdDeviation="3.15"/>
<feComposite in2="hardAlpha" operator="arithmetic" k2="-1" k3="1"/>
<feColorMatrix type="matrix" values="0 0 0 0 0 0 0 0 0 0 0 0 0 0 0 0 0 0 0.25 0"/>
<feBlend mode="normal" in2="shape" result="effect1_innerShadow_1_1348"/>
</filter>
</defs>
</svg>
