<svg width="115" height="115" viewBox="0 0 115 115" fill="none" xmlns="http://www.w3.org/2000/svg">
<g filter="url(#filter0_i_1_1324)">
<rect x="2.8439" y="42.528" width="80" height="80" rx="9" transform="rotate(-29.7391 2.8439 42.528)" fill="#FF5A5F"/>
</g>
<g clip-path="url(#clip0_1_1324)">
<path d="M73.1759 49.4822C72.6176 48.5346 71.853 47.72 70.9958 47.0346C70.3319 46.5027 69.6381 46.0134 68.9481 45.5182C63.4901 41.6263 57.945 37.8604 52.3184 34.2174C51.5306 33.7096 50.7451 33.1931 49.9433 32.7114C49.1563 32.2429 48.3192 31.8321 47.4221 31.6261C45.9759 31.2715 44.4174 31.4596 43.0858 32.1188L42.4945 32.4582C41.2076 33.2837 40.2323 34.5825 39.8157 36.0534C39.5582 36.9112 39.496 37.8128 39.5051 38.706C39.5174 39.63 39.5647 40.552 39.6051 41.4744C39.8069 45.9667 40.0804 50.4577 40.421 54.9392C40.6271 57.6213 40.8458 60.2998 41.1108 62.977C41.224 64.0895 41.3914 65.2143 41.8131 66.2583C42.4992 68.0345 43.8443 69.5449 45.5202 70.4451C46.9715 71.2315 48.6627 71.565 50.3058 71.3791C51.5811 71.234 52.8277 70.7866 53.902 70.0831C55.35 69.1469 56.4835 67.7827 57.2974 66.2722C58.2089 64.597 58.7561 62.7542 59.1875 60.9053C60.8772 61.4317 62.6107 61.8641 64.3857 61.9648C66.1018 62.0703 67.8653 61.8479 69.4384 61.1298C71.1595 60.3666 72.6082 59.0025 73.4515 57.3158C74.1969 55.8373 74.4747 54.131 74.2385 52.495C74.0861 51.4341 73.7256 50.402 73.1759 49.4822ZM57.3689 57.7177C56.6849 57.4727 56.0307 57.1598 55.3727 56.8528C54.2551 56.3132 53.1697 55.6972 52.1625 54.9711C51.3324 54.3643 50.547 53.6776 49.9254 52.8533C49.4385 52.1944 49.0353 51.4477 48.9094 50.6288C48.7813 49.8691 48.9127 49.0691 49.2704 48.3856C50.1164 46.748 52.0853 45.7411 53.9072 46.0939C54.8249 46.2663 55.6385 46.8318 56.1879 47.5744C56.9162 48.5656 57.288 49.7687 57.4851 50.9707C57.8389 53.2093 57.6757 55.4875 57.3662 57.7193L57.3689 57.7177ZM71.8459 52.3975C72.1978 53.8438 71.9549 55.4215 71.1864 56.6958C70.507 57.8284 69.4217 58.7085 68.1856 59.168C66.6185 59.7703 64.8916 59.7471 63.2582 59.4891C62.0595 59.3004 60.885 58.971 59.7307 58.601C60.039 56.5439 60.2416 54.4604 60.1192 52.3788C60.0089 50.5582 59.6625 48.7175 58.7966 47.0951C58.2435 46.0685 57.4643 45.1463 56.474 44.5192C55.1657 43.6725 53.5291 43.3837 52.0027 43.6656C50.5749 43.9236 49.234 44.6425 48.2212 45.6802C47.2655 46.6599 46.6171 47.9413 46.449 49.3022C46.2949 50.4919 46.5229 51.7159 47.0312 52.7972C47.7571 54.3586 48.9828 55.6295 50.3337 56.6765C52.321 58.1949 54.5912 59.2974 56.9145 60.1956C56.7108 61.2545 56.4189 62.2987 56.058 63.3173C55.4908 64.8855 54.6925 66.4233 53.4401 67.5551C52.4305 68.4787 51.1089 69.0669 49.7408 69.1385C48.1431 69.2331 46.5199 68.6142 45.3907 67.4799C44.5493 66.6514 43.9992 65.5542 43.7726 64.4019C43.5868 63.447 43.5183 62.4756 43.4233 61.5085C42.8216 54.9054 42.371 48.2881 42.0649 41.6638C42.021 40.6783 41.9684 39.6904 41.9525 38.7033C41.9448 37.9071 41.999 37.0863 42.3152 36.3432C42.6445 35.5347 43.2551 34.8438 44.0236 34.428C44.8037 33.9694 45.7489 33.811 46.6405 33.9694C47.5176 34.1217 48.3045 34.5649 49.049 35.0288C50.7369 36.0888 52.4074 37.1877 54.0747 38.2812C58.8376 41.4164 63.5395 44.641 68.1721 47.9597C68.8832 48.479 69.6145 48.9831 70.2439 49.6C71.0224 50.3631 71.5937 51.3395 71.8501 52.3986L71.8459 52.3975Z" fill="white"/>
<path d="M52.5756 76.3184C53.1583 75.781 54.149 75.8029 54.7051 76.3677C55.3114 76.9254 55.3359 77.9655 54.7661 78.557C54.2318 79.1789 53.1999 79.2241 52.596 78.6831C52.0624 78.2395 51.8964 77.4327 52.2055 76.8097C52.2932 76.6217 52.4258 76.455 52.5783 76.3168L52.5756 76.3184Z" fill="white"/>
<path d="M59.6376 78.1195C59.7891 77.4493 60.2007 76.8472 60.7377 76.4194C61.1055 76.1576 61.5174 75.9538 61.949 75.822C62.2985 76.4437 62.659 77.0592 63.0141 77.6778C62.3227 77.8681 61.6526 78.2092 61.1864 78.7666C60.9348 79.0668 60.75 79.4265 60.6607 79.8074C60.6339 79.8807 60.6882 79.9437 60.7172 80.0068C61.7115 81.733 62.702 83.4649 63.6951 85.1954C63.7272 85.2639 63.7874 85.3308 63.7934 85.4107C63.1351 85.8102 62.4597 86.1798 61.7936 86.5657C60.2811 83.9306 58.7671 81.2927 57.2547 78.6576C57.8161 78.3354 58.3802 78.0116 58.9415 77.6894C59.0595 77.6109 59.2305 77.5996 59.3429 77.6945C59.4694 77.8139 59.545 77.9771 59.6321 78.1226L59.6376 78.1195Z" fill="white"/>
<path d="M74.0373 69.8621C74.2539 69.0023 74.8714 68.2856 75.6317 67.8493C76.4246 67.3688 77.3837 67.1335 78.301 67.299C78.897 67.3844 79.4564 67.6647 79.8848 68.0891C80.4154 68.6033 80.7713 69.2612 81.1314 69.895C81.9322 71.2902 82.7345 72.6882 83.5353 74.0834C82.8622 74.4698 82.1923 74.8615 81.5145 75.2397C80.7137 73.8444 79.9129 72.4492 79.1106 71.0512C78.8134 70.5335 78.5157 69.958 77.9762 69.6555C77.5919 69.4341 77.1192 69.488 76.7295 69.6609C75.9677 69.9496 75.3969 70.6467 75.2098 71.4316C75.1877 71.5131 75.1817 71.6035 75.2309 71.6767C75.349 71.8951 75.5068 72.0943 75.6113 72.3206C75.753 72.6305 75.9612 72.8986 76.122 73.1976C76.4301 73.7598 76.7504 74.3114 77.0776 74.8627C77.4602 75.6176 77.9494 76.3186 78.325 77.0739C77.6546 77.4587 76.9843 77.8434 76.3139 78.2282C74.7999 75.5903 73.282 72.9583 71.7735 70.3173C72.2928 70.0228 72.8117 69.7214 73.3295 69.4242C73.4583 69.3394 73.6477 69.3285 73.7613 69.4444C73.8738 69.5647 73.9474 69.7181 74.033 69.8609L74.0373 69.8621Z" fill="white"/>
<path d="M58.5437 88.4273C57.0297 85.7895 55.5118 83.1575 54.0033 80.5165C54.6709 80.1333 55.3386 79.7501 56.0062 79.3669C57.5257 82.0016 59.0326 84.6399 60.5466 87.2778C59.879 87.661 59.2086 88.0457 58.5383 88.4305L58.5437 88.4273Z" fill="white"/>
<path d="M52.7595 81.2339C52.2308 81.5374 51.6994 81.8423 51.1692 82.1431C51.0302 82.2228 50.8535 82.3315 50.8698 82.5177C50.8932 82.7036 51.0147 82.8585 51.0999 83.0197C50.3895 82.8043 49.6086 82.883 48.9377 83.1847C47.9039 83.6621 47.0411 84.5196 46.5934 85.57C46.2174 86.4234 46.1382 87.3963 46.3227 88.3048C46.4092 88.7333 46.5624 89.1453 46.7401 89.5433L47.0513 90.0856C47.7592 91.1863 48.9061 92.017 50.2028 92.2437C51.1872 92.425 52.22 92.2488 53.1151 91.8075L53.5647 91.5495C54.2221 91.1106 54.7353 90.4393 54.9115 89.6607C55.0093 89.8183 55.0817 90.0013 55.2292 90.1195C55.3639 90.2089 55.5298 90.1572 55.6547 90.0782C56.1998 89.7654 56.7475 89.451 57.2952 89.1366C55.7828 86.5015 54.2704 83.8664 52.7579 81.2312L52.7595 81.2339ZM53.8025 87.8736C53.6753 88.5987 53.2034 89.2535 52.5532 89.5977C51.8724 89.9957 51.0137 90.1408 50.2614 89.8589C49.5368 89.5937 48.9978 88.9575 48.7221 88.2499C48.4938 87.6818 48.4699 87.0216 48.7089 86.4533C48.9195 85.9303 49.3139 85.4939 49.7802 85.1828C50.4663 84.7056 51.4124 84.5865 52.1831 84.9194C52.7003 85.7638 53.1716 86.6417 53.6767 87.4965C53.7342 87.6157 53.8451 87.7332 53.8025 87.8736Z" fill="white"/>
<path d="M71.9178 73.245C71.1707 72.663 70.2375 72.3183 69.29 72.2897C68.3125 72.253 67.3302 72.5487 66.5183 73.0908C65.8757 73.5176 65.3886 74.1775 65.2037 74.9285C64.356 73.4515 63.5083 71.9745 62.6606 70.4975C61.9875 70.8838 61.3101 71.269 60.6386 71.658C62.881 75.5588 65.1126 79.4657 67.3632 83.3618C67.9218 83.0412 68.4805 82.7205 69.0364 82.4015C69.1816 82.3326 69.2877 82.1703 69.2461 82.0094C69.192 81.8521 69.0967 81.7112 69.0149 81.5624C69.7824 81.8139 70.6317 81.7032 71.3474 81.3468L71.7589 81.1106C72.846 80.4106 73.6439 79.257 73.8418 77.9733C74.1327 76.2015 73.3189 74.3355 71.9162 73.2423L71.9178 73.245ZM71.473 77.9236C71.2615 78.6029 70.7516 79.16 70.1381 79.5049C69.5082 79.8845 68.7059 79.9574 68.0195 79.6956C67.9408 79.672 67.8853 79.6133 67.8489 79.5436C67.3297 78.6388 66.8104 77.7341 66.2912 76.8294C66.3888 76.1032 66.8259 75.432 67.4437 75.0376C68.0758 74.6494 68.8568 74.4511 69.5895 74.6356C70.2784 74.7945 70.8546 75.2934 71.1882 75.9062C71.549 76.5034 71.6794 77.2545 71.4718 77.9279L71.473 77.9236Z" fill="white"/>
<path d="M87.9765 62.7275C86.4952 62.1286 84.7132 62.4196 83.4636 63.4049C82.9457 63.8217 82.5598 64.4054 82.4028 65.0534C81.5497 63.5796 80.7074 62.0995 79.8597 60.6225C79.1866 61.0088 78.5162 61.3936 77.8431 61.7799C80.0829 65.6822 82.3226 69.5845 84.5623 73.4868C85.0952 73.1845 85.6251 72.8768 86.1553 72.5761C86.2943 72.4963 86.464 72.3881 86.4535 72.2057C86.4286 72.0171 86.3055 71.8595 86.2172 71.6929C86.9756 71.935 87.8071 71.8309 88.5165 71.489L88.9716 71.2278C90.0436 70.5328 90.831 69.3926 91.0339 68.124C91.2089 67.1034 91.0128 66.0422 90.5504 65.1229L90.247 64.5943C89.6901 63.7691 88.909 63.0835 87.9734 62.7221L87.9765 62.7275ZM88.7455 67.7094C88.6055 68.7027 87.8124 69.4985 86.9019 69.8435C86.3344 70.0352 85.6859 70.0415 85.1379 69.7872C84.9144 69.4736 84.752 69.1212 84.5487 68.7922C84.205 68.1744 83.827 67.5726 83.5023 66.9438C83.5651 66.3463 83.9008 65.795 84.3408 65.3939C85.1742 64.6873 86.4699 64.4327 87.4329 65.0248C88.3174 65.575 88.8881 66.6639 88.7455 67.7094Z" fill="white"/>
</g>
<defs>
<filter id="filter0_i_1_1324" x="6.12146" y="4.12146" width="102.592" height="104.592" filterUnits="userSpaceOnUse" color-interpolation-filters="sRGB">
<feFlood flood-opacity="0" result="BackgroundImageFix"/>
<feBlend mode="normal" in="SourceGraphic" in2="BackgroundImageFix" result="shape"/>
<feColorMatrix in="SourceAlpha" type="matrix" values="0 0 0 0 0 0 0 0 0 0 0 0 0 0 0 0 0 0 127 0" result="hardAlpha"/>
<feOffset dy="-2"/>
<feGaussianBlur stdDeviation="3.15"/>
<feComposite in2="hardAlpha" operator="arithmetic" k2="-1" k3="1"/>
<feColorMatrix type="matrix" values="0 0 0 0 0 0 0 0 0 0 0 0 0 0 0 0 0 0 0.25 0"/>
<feBlend mode="normal" in2="shape" result="effect1_innerShadow_1_1324"/>
</filter>
<clipPath id="clip0_1_1324">
<rect width="62.8403" height="62.8403" fill="white" transform="translate(14.1331 45.4756) rotate(-29.8536)"/>
</clipPath>
</defs>
</svg>
