<svg width="76" height="76" viewBox="0 0 76 76" fill="none" xmlns="http://www.w3.org/2000/svg">
<g filter="url(#filter0_i_1_1340)">
<rect y="22.7932" width="57.784" height="57.784" rx="9" transform="rotate(-23.232 0 22.7932)" fill="#0E214B"/>
</g>
<g clip-path="url(#clip0_1_1340)">
<path fill-rule="evenodd" clip-rule="evenodd" d="M18.8071 27.5937C19.5199 27.2677 20.2419 26.9519 20.9651 26.6497C22.0676 28.529 23.4142 30.2496 24.7046 32.0042C30.2582 39.6809 35.8239 47.3524 41.3735 55.0308C40.9467 55.2175 40.5239 55.4025 40.1011 55.5875C34.922 48.4304 29.735 41.2768 24.552 34.1214C23.4378 32.5631 22.2975 31.0209 21.0838 29.5391C20.4505 28.765 19.7079 28.0669 18.8128 27.5959L18.8071 27.5937Z" fill="#318EEE"/>
<path fill-rule="evenodd" clip-rule="evenodd" d="M14.4547 29.5071C15.1446 29.1723 15.8593 28.8833 16.5579 28.5682C16.8033 28.4232 17.0785 28.5526 17.3301 28.617C18.6576 29.012 19.6574 30.0264 20.5549 31.0243C21.8354 32.4958 22.9105 34.1278 24.0709 35.6942C29 42.5081 33.9434 49.3111 38.8685 56.1267C38.4417 56.3134 38.0149 56.5001 37.5881 56.6868C32.3976 49.5253 27.2054 42.3599 22.0109 35.2001C20.9606 33.7552 19.9524 32.2542 18.6041 31.0623C17.8244 30.3663 16.8832 29.8117 15.8381 29.6279C15.3838 29.5344 14.9151 29.5602 14.4547 29.5071Z" fill="#76C5F7"/>
<path fill-rule="evenodd" clip-rule="evenodd" d="M45.1697 16.1699C45.3126 15.9425 45.5869 15.8743 45.8188 15.7634C46.8287 15.3452 47.8148 14.862 48.8425 14.4737C48.6039 14.7431 48.3269 14.968 48.0642 15.2148C46.7923 16.4029 45.7316 17.8237 45.0222 19.4068C43.8798 21.9664 43.4991 24.7679 43.1792 27.5239C43.0783 28.4448 42.9871 29.3661 42.9171 30.2924C42.9081 30.4565 42.8546 30.6167 42.7936 30.7706C42.7351 30.4521 42.7548 30.1277 42.7722 29.809C42.8442 27.8118 42.9123 25.8165 43.0757 23.8218C43.2119 22.2538 43.3893 20.682 43.8112 19.1588C44.0987 18.0997 44.544 17.0753 45.1754 16.1721L45.1697 16.1699ZM22.5652 25.9403L24.3961 25.1394C24.59 26.8646 25.4899 28.3895 26.4487 29.799C31.3566 36.608 36.2344 43.4349 41.1384 50.2457C41.3017 50.4995 41.5768 50.7373 41.5315 51.0683C41.5058 51.6829 41.488 52.294 41.4565 52.9065C36.2528 45.7366 31.0674 38.554 25.8734 31.3846C24.6158 29.6721 23.3421 27.9337 22.5652 25.9403Z" fill="#2474DE"/>
<path fill-rule="evenodd" clip-rule="evenodd" d="M40.3756 18.1492C41.2372 17.7723 42.0954 17.3875 42.9639 17.0264C42.7109 18.5229 42.6184 20.0388 42.6075 21.5566C42.5785 24.4777 42.6328 27.4047 42.666 30.3268C42.6661 30.4682 42.6313 30.6059 42.6005 30.7419C42.5581 30.5908 42.5215 30.4418 42.5105 30.2864C42.3522 27.9799 42.2373 25.6639 41.9363 23.3681C41.698 21.5633 41.2753 19.7496 40.3796 18.1475L40.3756 18.1492ZM26.0355 24.4223C26.7216 24.1221 27.4037 23.8238 28.0898 23.5236C27.9598 23.9434 27.8064 24.3641 27.7901 24.8049C27.739 25.7417 28.0457 26.6492 28.4303 27.485C29.1741 29.0875 30.2618 30.4877 31.2698 31.9229C34.0377 35.8169 36.8097 39.7093 39.5776 43.6034C40.2724 44.6051 41.0197 45.5745 41.6781 46.6016C41.6921 47.3072 41.6399 48.0135 41.6071 48.7208C37.7131 43.2736 33.8207 37.8303 29.9267 32.3831C28.7722 30.7434 27.5214 29.1553 26.6551 27.3377C26.2256 26.432 26.0001 25.4276 26.0338 24.4183L26.0355 24.4223Z" fill="#E85F24"/>
<path fill-rule="evenodd" clip-rule="evenodd" d="M35.8592 20.1438C36.6972 19.7348 37.5687 19.3913 38.4154 19.002C39.4335 19.3957 40.1763 20.268 40.6077 21.2436C41.2959 22.795 41.5833 24.484 41.8563 26.1511C42.0686 27.5053 42.2335 28.8709 42.4046 30.229C42.431 30.3871 42.4124 30.5508 42.3822 30.7101C42.2257 30.2978 42.1877 29.8525 42.1058 29.4264C41.7278 27.3999 41.2801 25.3661 40.467 23.464C39.9192 22.266 39.1611 21.0326 37.9047 20.4745C37.269 20.1728 36.5525 20.1752 35.8569 20.1495L35.8592 20.1438ZM29.5171 25.7652C29.2998 24.6818 29.4838 23.4512 30.2462 22.6086C31.2518 22.1263 32.281 21.6761 33.3217 21.2632C32.778 21.7368 32.162 22.1429 31.7233 22.726C31.1316 23.4374 30.8366 24.3819 30.9481 25.2994C31.1085 26.6764 31.834 27.9004 32.59 29.0309C35.6474 33.4347 38.7146 37.839 41.768 42.2445C41.8794 42.3796 41.846 42.5639 41.8467 42.7286C41.8163 43.3217 41.8053 43.9157 41.7651 44.5083C38.3947 39.7041 35.0282 34.8981 31.6618 30.0922C30.7172 28.7802 29.8349 27.3608 29.5136 25.7572L29.5171 25.7652Z" fill="#8EC089"/>
</g>
<defs>
<filter id="filter0_i_1_1340" x="2.81802" y="0.818024" width="70.2557" height="72.2557" filterUnits="userSpaceOnUse" color-interpolation-filters="sRGB">
<feFlood flood-opacity="0" result="BackgroundImageFix"/>
<feBlend mode="normal" in="SourceGraphic" in2="BackgroundImageFix" result="shape"/>
<feColorMatrix in="SourceAlpha" type="matrix" values="0 0 0 0 0 0 0 0 0 0 0 0 0 0 0 0 0 0 127 0" result="hardAlpha"/>
<feOffset dy="-2"/>
<feGaussianBlur stdDeviation="3.15"/>
<feComposite in2="hardAlpha" operator="arithmetic" k2="-1" k3="1"/>
<feColorMatrix type="matrix" values="0 0 0 0 0 0 0 0 0 0 0 0 0 0 0 0 0 0 0.25 0"/>
<feBlend mode="normal" in2="shape" result="effect1_innerShadow_1_1340"/>
</filter>
<clipPath id="clip0_1_1340">
<rect width="37.5303" height="34.1943" fill="white" transform="translate(14.446 29.4873) rotate(-23.6268)"/>
</clipPath>
</defs>
</svg>
