<svg width="185" height="88" viewBox="0 0 185 88" fill="none" xmlns="http://www.w3.org/2000/svg">
<path d="M95.4464 61.5975C83.1573 64.6611 68.4838 65.2433 57.6839 57.506C50.7821 52.5613 47.1171 42.5628 49.6965 34.4471C52.1325 26.7825 57.8212 20.0482 66.3458 20.2534C70.7891 20.3604 74.6202 22.4047 75.4291 27.084C76.6648 34.2329 69.5332 41.6308 63.863 44.7405C46.1673 54.4452 21.1341 53.9052 4.27692 42.6407" stroke="#ED3C6A" stroke-width="3" stroke-linecap="round"/>
<path d="M11.7068 55.8447C9.64482 52.9634 5.14208 46.2418 3.62681 42.4054" stroke="#ED3C6A" stroke-width="3" stroke-linecap="round"/>
<path d="M3.62689 42.4055C7.13954 41.942 15.1239 40.6363 18.9603 39.121" stroke="#ED3C6A" stroke-width="3" stroke-linecap="round"/>
<path d="M109.418 69.216C108.506 69.216 107.702 69.054 107.006 68.73C106.31 68.394 105.77 67.926 105.386 67.326C105.002 66.726 104.804 66.024 104.792 65.22H106.7C106.7 65.676 106.802 66.096 107.006 66.48C107.222 66.852 107.528 67.152 107.924 67.38C108.332 67.596 108.83 67.704 109.418 67.704C109.922 67.704 110.354 67.62 110.714 67.452C111.086 67.284 111.368 67.056 111.56 66.768C111.752 66.468 111.848 66.126 111.848 65.742C111.848 65.298 111.746 64.932 111.542 64.644C111.35 64.356 111.08 64.122 110.732 63.942C110.384 63.75 109.982 63.582 109.526 63.438C109.082 63.294 108.614 63.138 108.122 62.97C107.138 62.634 106.4 62.214 105.908 61.71C105.428 61.194 105.188 60.522 105.188 59.694C105.188 58.986 105.35 58.374 105.674 57.858C106.01 57.33 106.484 56.922 107.096 56.634C107.708 56.334 108.422 56.184 109.238 56.184C110.066 56.184 110.78 56.334 111.38 56.634C111.992 56.934 112.472 57.348 112.82 57.876C113.168 58.404 113.348 59.022 113.36 59.73H111.452C111.452 59.406 111.362 59.088 111.182 58.776C111.014 58.464 110.762 58.212 110.426 58.02C110.102 57.816 109.694 57.714 109.202 57.714C108.782 57.702 108.41 57.768 108.086 57.912C107.774 58.056 107.522 58.266 107.33 58.542C107.15 58.818 107.06 59.148 107.06 59.532C107.06 59.916 107.144 60.228 107.312 60.468C107.48 60.696 107.714 60.894 108.014 61.062C108.326 61.23 108.692 61.386 109.112 61.53C109.532 61.662 109.994 61.812 110.498 61.98C111.11 62.184 111.662 62.436 112.154 62.736C112.646 63.024 113.03 63.402 113.306 63.87C113.594 64.326 113.738 64.914 113.738 65.634C113.738 66.258 113.576 66.84 113.252 67.38C112.928 67.92 112.448 68.364 111.812 68.712C111.176 69.048 110.378 69.216 109.418 69.216ZM118.777 69.216C118.033 69.216 117.415 69.09 116.923 68.838C116.431 68.586 116.065 68.25 115.825 67.83C115.585 67.41 115.465 66.954 115.465 66.462C115.465 65.862 115.615 65.352 115.915 64.932C116.227 64.512 116.671 64.188 117.247 63.96C117.835 63.732 118.531 63.618 119.335 63.618H121.693C121.693 63.09 121.615 62.658 121.459 62.322C121.303 61.974 121.069 61.716 120.757 61.548C120.445 61.368 120.061 61.278 119.605 61.278C119.065 61.278 118.597 61.41 118.201 61.674C117.805 61.926 117.565 62.31 117.481 62.826H115.681C115.753 62.178 115.969 61.632 116.329 61.188C116.701 60.732 117.175 60.384 117.751 60.144C118.327 59.892 118.945 59.766 119.605 59.766C120.445 59.766 121.153 59.916 121.729 60.216C122.305 60.516 122.743 60.942 123.043 61.494C123.343 62.034 123.493 62.682 123.493 63.438V69H121.927L121.783 67.47C121.663 67.71 121.507 67.938 121.315 68.154C121.135 68.37 120.919 68.556 120.667 68.712C120.427 68.868 120.145 68.988 119.821 69.072C119.509 69.168 119.161 69.216 118.777 69.216ZM119.119 67.758C119.503 67.758 119.851 67.68 120.163 67.524C120.475 67.368 120.739 67.158 120.955 66.894C121.183 66.618 121.351 66.312 121.459 65.976C121.579 65.64 121.645 65.286 121.657 64.914V64.878H119.515C118.999 64.878 118.579 64.944 118.255 65.076C117.931 65.196 117.697 65.37 117.553 65.598C117.421 65.814 117.355 66.06 117.355 66.336C117.355 66.624 117.421 66.876 117.553 67.092C117.697 67.308 117.901 67.476 118.165 67.596C118.429 67.704 118.747 67.758 119.119 67.758ZM127.994 69L124.628 59.982H126.518L129.074 67.272L131.648 59.982H133.502L130.118 69H127.994ZM138.789 69.216C137.913 69.216 137.139 69.024 136.467 68.64C135.795 68.244 135.267 67.692 134.883 66.984C134.511 66.276 134.325 65.454 134.325 64.518C134.325 63.57 134.511 62.742 134.883 62.034C135.255 61.326 135.777 60.774 136.449 60.378C137.133 59.97 137.919 59.766 138.807 59.766C139.695 59.766 140.457 59.964 141.093 60.36C141.729 60.756 142.221 61.278 142.569 61.926C142.917 62.574 143.091 63.288 143.091 64.068C143.091 64.188 143.091 64.32 143.091 64.464C143.091 64.596 143.085 64.746 143.073 64.914H135.639V63.654H141.291C141.267 62.91 141.015 62.328 140.535 61.908C140.067 61.476 139.485 61.26 138.789 61.26C138.309 61.26 137.859 61.374 137.439 61.602C137.031 61.818 136.701 62.136 136.449 62.556C136.209 62.976 136.089 63.51 136.089 64.158V64.662C136.089 65.322 136.209 65.88 136.449 66.336C136.701 66.792 137.031 67.14 137.439 67.38C137.847 67.608 138.291 67.722 138.771 67.722C139.347 67.722 139.821 67.596 140.193 67.344C140.577 67.08 140.859 66.732 141.039 66.3H142.839C142.683 66.852 142.419 67.35 142.047 67.794C141.675 68.226 141.213 68.574 140.661 68.838C140.121 69.09 139.497 69.216 138.789 69.216ZM149.535 69V67.704C150.363 67.056 151.149 66.402 151.893 65.742C152.649 65.082 153.321 64.428 153.909 63.78C154.509 63.12 154.977 62.478 155.313 61.854C155.661 61.218 155.835 60.612 155.835 60.036C155.835 59.628 155.763 59.25 155.619 58.902C155.475 58.554 155.247 58.272 154.935 58.056C154.623 57.828 154.197 57.714 153.657 57.714C153.153 57.714 152.727 57.828 152.379 58.056C152.031 58.284 151.767 58.59 151.587 58.974C151.419 59.346 151.335 59.76 151.335 60.216H149.607C149.619 59.352 149.805 58.62 150.165 58.02C150.525 57.42 151.011 56.964 151.623 56.652C152.235 56.34 152.931 56.184 153.711 56.184C154.503 56.184 155.193 56.334 155.781 56.634C156.369 56.922 156.825 57.348 157.149 57.912C157.473 58.464 157.635 59.142 157.635 59.946C157.635 60.522 157.521 61.098 157.293 61.674C157.065 62.238 156.753 62.79 156.357 63.33C155.973 63.87 155.541 64.392 155.061 64.896C154.581 65.388 154.083 65.856 153.567 66.3C153.063 66.744 152.583 67.146 152.127 67.506H158.013V69H149.535ZM164.478 69.216C163.602 69.216 162.84 69.06 162.192 68.748C161.544 68.424 161.034 67.986 160.662 67.434C160.29 66.882 160.068 66.264 159.996 65.58H161.742C161.874 66.192 162.18 66.696 162.66 67.092C163.14 67.488 163.752 67.686 164.496 67.686C165.036 67.686 165.504 67.554 165.9 67.29C166.296 67.026 166.602 66.672 166.818 66.228C167.046 65.784 167.16 65.286 167.16 64.734C167.16 64.158 167.046 63.66 166.818 63.24C166.602 62.808 166.296 62.472 165.9 62.232C165.504 61.992 165.048 61.872 164.532 61.872C163.908 61.872 163.368 62.016 162.912 62.304C162.456 62.58 162.126 62.946 161.922 63.402H160.194L161.256 56.4H168.024V57.966H162.624L161.958 61.494C162.246 61.17 162.63 60.906 163.11 60.702C163.602 60.486 164.16 60.378 164.784 60.378C165.42 60.378 165.99 60.492 166.494 60.72C166.998 60.936 167.43 61.242 167.79 61.638C168.15 62.034 168.42 62.496 168.6 63.024C168.792 63.552 168.888 64.116 168.888 64.716C168.888 65.34 168.786 65.928 168.582 66.48C168.378 67.02 168.084 67.5 167.7 67.92C167.316 68.328 166.854 68.646 166.314 68.874C165.774 69.102 165.162 69.216 164.478 69.216ZM172.673 69L179.927 56.4H181.709L174.455 69H172.673ZM180.917 69.216C180.365 69.216 179.861 69.09 179.405 68.838C178.961 68.586 178.607 68.232 178.343 67.776C178.079 67.308 177.947 66.762 177.947 66.138C177.947 65.49 178.079 64.938 178.343 64.482C178.607 64.026 178.961 63.672 179.405 63.42C179.861 63.168 180.365 63.042 180.917 63.042C181.481 63.042 181.979 63.168 182.411 63.42C182.855 63.672 183.203 64.026 183.455 64.482C183.719 64.938 183.851 65.49 183.851 66.138C183.851 66.762 183.719 67.308 183.455 67.776C183.203 68.232 182.855 68.586 182.411 68.838C181.967 69.09 181.469 69.216 180.917 69.216ZM180.899 67.884C181.163 67.884 181.403 67.818 181.619 67.686C181.847 67.554 182.027 67.362 182.159 67.11C182.303 66.846 182.375 66.516 182.375 66.12C182.375 65.724 182.309 65.4 182.177 65.148C182.045 64.884 181.865 64.686 181.637 64.554C181.421 64.422 181.175 64.356 180.899 64.356C180.647 64.356 180.407 64.422 180.179 64.554C179.951 64.686 179.765 64.884 179.621 65.148C179.489 65.4 179.423 65.724 179.423 66.12C179.423 66.516 179.489 66.846 179.621 67.11C179.765 67.362 179.945 67.554 180.161 67.686C180.389 67.818 180.635 67.884 180.899 67.884ZM173.573 62.376C173.021 62.376 172.523 62.25 172.079 61.998C171.635 61.746 171.281 61.392 171.017 60.936C170.753 60.468 170.621 59.916 170.621 59.28C170.621 58.644 170.753 58.098 171.017 57.642C171.281 57.186 171.635 56.832 172.079 56.58C172.535 56.328 173.039 56.202 173.591 56.202C174.143 56.202 174.641 56.328 175.085 56.58C175.529 56.832 175.883 57.186 176.147 57.642C176.411 58.098 176.543 58.644 176.543 59.28C176.543 59.916 176.411 60.468 176.147 60.936C175.883 61.392 175.529 61.746 175.085 61.998C174.641 62.25 174.137 62.376 173.573 62.376ZM173.573 61.044C173.849 61.044 174.095 60.978 174.311 60.846C174.539 60.714 174.719 60.522 174.851 60.27C174.983 60.006 175.049 59.676 175.049 59.28C175.049 58.884 174.983 58.554 174.851 58.29C174.719 58.026 174.539 57.828 174.311 57.696C174.095 57.564 173.855 57.498 173.591 57.498C173.327 57.498 173.081 57.564 172.853 57.696C172.625 57.828 172.439 58.026 172.295 58.29C172.163 58.554 172.097 58.884 172.097 59.28C172.097 59.664 172.163 59.988 172.295 60.252C172.439 60.516 172.619 60.714 172.835 60.846C173.063 60.978 173.309 61.044 173.573 61.044Z" fill="#ED3C6A"/>
</svg>
