<svg width="189" height="42" viewBox="0 0 189 42" fill="none" xmlns="http://www.w3.org/2000/svg">
<mask id="mask0_1_667" style="mask-type:luminance" maskUnits="userSpaceOnUse" x="0" y="0" width="189" height="42">
<path d="M188.32 0H0V41.8279H188.32V0Z" fill="white"/>
</mask>
<g mask="url(#mask0_1_667)">
<path d="M43.1503 37.227H25.1731C21.7144 37.227 18.8992 34.4086 18.8992 30.9326V12.9353C18.8992 9.47278 21.7144 6.65442 25.1731 6.65442H43.1503C46.6223 6.65442 49.4242 9.47278 49.4242 12.9353V30.9326C49.4376 34.4086 46.6223 37.227 43.1503 37.227Z" fill="#FDDB32"/>
<path d="M28.2278 31.2823V28.3162C28.2278 28.0746 28.04 27.8868 27.7988 27.8868H24.8361C24.5948 27.8868 24.4071 28.0746 24.4071 28.3162V31.2823C24.4071 31.5239 24.5948 31.7117 24.8361 31.7117H27.7988C28.04 31.7117 28.2278 31.5239 28.2278 31.2823Z" fill="#191E3B"/>
<path d="M43.9292 28.731V14.1158C43.9292 13.0287 43.0578 12.1563 41.9719 12.1563H27.373C27.078 12.1563 26.9038 12.2637 26.7161 12.4516L23.8071 15.3907C23.5926 15.6054 23.74 15.9276 24.0618 15.9276H37.2665L29.0755 24.1276C28.9281 24.2753 28.861 24.4229 28.861 24.6645V26.8253C28.861 27.0802 29.0353 27.2547 29.29 27.2547H31.4484C31.703 27.2547 31.8505 27.1876 31.9846 27.04L40.1755 18.8399V32.0593C40.1755 32.3815 40.4972 32.5291 40.7118 32.3144L43.6477 29.3886C43.8219 29.2007 43.9292 29.0263 43.9292 28.731Z" fill="#191E3B"/>
<path d="M88.2478 24.9603L94.2267 16.6931C94.4011 16.4381 94.267 16.183 93.9721 16.183H90.7144C90.5402 16.183 90.3123 16.2502 90.205 16.4381L86.2637 22.1956L82.2286 16.4381C82.1213 16.2636 81.9068 16.183 81.7192 16.183H78.2471C78.0728 16.183 77.9521 16.3307 77.9521 16.4783C77.9521 16.5455 77.9521 16.6259 78.0192 16.6931L84.0116 24.9871L77.4025 34.0864C77.2282 34.3414 77.3623 34.5964 77.617 34.5964H80.9014C81.0757 34.5964 81.3036 34.5293 81.4108 34.3414L85.9822 27.7518L90.6207 34.3414C90.7279 34.5293 90.9423 34.5964 91.1301 34.5964H94.629C94.8033 34.5964 94.9239 34.4488 94.9239 34.3012C94.9239 34.2341 94.8836 34.1535 94.8569 34.0864L88.2478 24.9603Z" fill="#191E3B"/>
<path d="M74.8957 9.271C75.1505 9.271 75.3247 9.44547 75.3247 9.70046V12.1565C75.3247 12.4114 75.1505 12.5859 74.8957 12.5859H63.2193V19.8868H73.7027C73.9573 19.8868 74.1316 20.0613 74.1316 20.3163V22.7589C74.1316 23.0139 73.9573 23.1883 73.7027 23.1883H63.2193V31.1872H74.8957C75.1505 31.1872 75.3247 31.3616 75.3247 31.6166V34.1531C75.3247 34.4081 75.1505 34.5826 74.8957 34.5826H61.2352C60.1896 34.5826 59.3987 33.7908 59.3987 32.7439V11.1097C59.3987 10.0628 60.1896 9.271 61.2352 9.271H74.8957Z" fill="#191E3B"/>
<path d="M107.229 15.6056C103.69 15.6056 101.813 17.1623 100.727 18.6118V16.6121C100.727 16.3571 100.554 16.1827 100.299 16.1827H97.4431C97.1885 16.1827 97.0142 16.3705 97.0142 16.6121V40.4474C97.0142 40.7024 97.1885 40.8769 97.4431 40.8769H100.338C100.593 40.8769 100.768 40.7024 100.768 40.4474V32.2339C101.813 33.6833 103.69 35.1328 107.229 35.1328C112.981 35.1328 116.332 30.7979 116.332 25.3625C116.332 19.9271 112.981 15.6056 107.229 15.6056ZM106.586 32.0192C103.047 32.0192 100.621 29.6303 100.621 25.4027C100.621 21.1752 103.047 18.7057 106.586 18.7057C110.125 18.7057 112.512 21.1618 112.512 25.4027C112.512 29.6303 110.125 32.0192 106.586 32.0192Z" fill="#191E3B"/>
<path d="M127.727 15.6056C122.7 15.6056 118.692 19.2291 118.692 25.2283C118.692 31.375 122.23 35.1463 128.196 35.1463C131.628 35.1463 134.483 33.6297 136.253 31.5226C136.36 31.4152 136.4 31.3079 136.4 31.2005C136.4 31.0932 136.36 30.9858 136.253 30.8784L134.591 29.2411C134.483 29.1337 134.376 29.0934 134.269 29.0934C134.162 29.0934 134.054 29.1605 133.947 29.2679C132.58 30.7576 130.797 32.0192 128.236 32.0192C124.496 32.0192 122.7 29.7108 122.418 26.3825H136.293C136.547 26.3825 136.722 26.1945 136.722 25.953V25.2283C136.722 19.7257 133.398 15.6056 127.727 15.6056ZM122.552 23.5641C122.981 20.5444 124.563 18.5715 127.7 18.5715C130.917 18.5715 132.62 20.4102 132.861 23.5641H122.552Z" fill="#191E3B"/>
<path d="M188.388 16.1832H185.533C185.278 16.1832 185.103 16.3577 185.103 16.6127V18.6392C184.017 17.1897 182.141 15.633 178.522 15.633C172.851 15.633 169.486 19.9679 169.486 25.4033C169.486 30.8387 172.851 35.1737 178.522 35.1737C182.141 35.1737 184.017 33.6168 185.103 32.1674V34.1537C185.103 34.4086 185.278 34.5831 185.533 34.5831H188.388C188.643 34.5831 188.817 34.4086 188.817 34.1537V16.6127C188.83 16.3577 188.643 16.1832 188.388 16.1832ZM179.245 32.06C175.706 32.06 173.32 29.604 173.32 25.363C173.32 21.1355 175.706 18.7466 179.245 18.7466C182.785 18.7466 185.211 21.1355 185.211 25.363C185.211 29.604 182.785 32.06 179.245 32.06Z" fill="#191E3B"/>
<path d="M157.973 9.271H155.077C154.822 9.271 154.648 9.44547 154.648 9.70046V18.6387C153.562 17.1893 151.726 15.6324 148.106 15.6324C142.436 15.6324 139.071 19.9673 139.071 25.4028C139.071 30.8382 142.436 35.1731 148.106 35.1731C151.726 35.1731 153.602 33.6163 154.688 32.1668V34.1531C154.688 34.4081 154.863 34.5826 155.117 34.5826H157.973C158.227 34.5826 158.401 34.4081 158.401 34.1531V9.70046C158.401 9.44547 158.227 9.271 157.973 9.271ZM148.83 32.0595C145.291 32.0595 142.905 29.6035 142.905 25.3625C142.905 21.1349 145.291 18.7461 148.83 18.7461C152.369 18.7461 154.795 21.1349 154.795 25.3625C154.795 29.6035 152.369 32.0595 148.83 32.0595Z" fill="#191E3B"/>
<path d="M165.842 9.271C166.096 9.271 166.27 9.44547 166.27 9.70046V12.6665C166.27 12.9214 166.096 13.0959 165.842 13.0959H162.879C162.624 13.0959 162.45 12.9214 162.45 12.6665V9.70046C162.45 9.44547 162.624 9.271 162.879 9.271H165.842Z" fill="#191E3B"/>
<path d="M165.812 16.183C166.067 16.183 166.241 16.3575 166.241 16.6126V34.1535C166.241 34.4085 166.067 34.583 165.812 34.583H162.916C162.662 34.583 162.487 34.4085 162.487 34.1535V16.6126C162.487 16.3575 162.662 16.183 162.916 16.183H165.812Z" fill="#191E3B"/>
</g>
</svg>
