<svg width="179" height="39" viewBox="0 0 179 39" fill="none" xmlns="http://www.w3.org/2000/svg">
<path d="M177.751 25.4088C177.197 25.4088 176.746 25.8591 176.746 26.4136C176.746 26.9681 177.197 27.4184 177.751 27.4184C178.305 27.4184 178.756 26.9681 178.756 26.4136C178.756 25.8591 178.305 25.4088 177.751 25.4088ZM177.751 27.2591C177.284 27.2591 176.906 26.8788 176.906 26.4136C176.906 25.9462 177.286 25.5681 177.751 25.5681C178.218 25.5681 178.599 25.9484 178.599 26.4136C178.599 26.8788 178.218 27.2591 177.751 27.2591ZM178.078 26.2415C178.078 26.0588 177.949 25.9505 177.757 25.9505H177.436V26.8661H177.594V26.5347H177.766L177.931 26.8661H178.101L177.919 26.5007C178.017 26.4561 178.078 26.3668 178.078 26.2415ZM177.751 26.3923H177.596V26.0886H177.751C177.857 26.0886 177.921 26.1417 177.921 26.2394C177.921 26.3393 177.855 26.3923 177.751 26.3923ZM56.6794 15.2396V12.8094H52.9534V27.2675H56.6794V18.5983C56.6794 17.0284 57.6864 16.2572 59.2563 16.2572H61.2956V12.8095H59.5536C58.1898 12.8094 57.0045 13.5211 56.6794 15.2396ZM64.7859 7.09076C63.5113 7.09076 62.5341 8.0977 62.5341 9.37229C62.5341 10.6171 63.5113 11.6241 64.7859 11.6241C66.0605 11.6241 67.0377 10.6171 67.0377 9.37229C67.0376 8.09765 66.0605 7.09076 64.7859 7.09076ZM62.9271 27.2676H66.6447V12.8094H62.9271V27.2676ZM84.353 20.0385C84.353 24.166 81.0072 27.5119 76.8796 27.5119C75.2141 27.5119 73.7037 26.966 72.4928 26.044V31.512H68.7753V12.8094H72.4928V14.033C73.7037 13.1111 75.2141 12.5651 76.8796 12.5651C81.0072 12.5651 84.353 15.9109 84.353 20.0385ZM80.6121 20.0385C80.6121 17.7973 78.7937 15.9789 76.5525 15.9789C74.3113 15.9789 72.4929 17.7973 72.4929 20.0385C72.4929 22.2797 74.3114 24.0981 76.5525 24.0981C78.7937 24.0981 80.6121 22.2818 80.6121 20.0385ZM148.966 18.7703L146.797 18.1755C145.37 17.8037 144.816 17.3661 144.816 16.612C144.816 15.8769 145.597 15.3629 146.715 15.3629C147.779 15.3629 148.614 16.0596 148.614 16.9518V17.0346H152.04V16.9518C152.04 14.3282 149.901 12.5651 146.715 12.5651C143.56 12.5651 141.268 14.3261 141.268 16.7542C141.268 18.6428 142.519 20.066 144.703 20.6566L146.781 21.2238C148.359 21.6614 148.945 22.1458 148.945 23.0147C148.945 23.9303 148.098 24.5463 146.836 24.5463C145.521 24.5463 144.635 23.7135 144.635 22.4772V22.3943H140.998V22.4772C140.998 25.4427 143.386 27.5161 146.806 27.5161C150.101 27.5161 152.493 25.4916 152.493 22.7045C152.493 21.3364 151.881 19.5478 148.966 18.7703ZM97.5409 12.8094H101.258V27.2675H97.5409V26.0439C96.3299 26.9659 94.8195 27.5119 93.1541 27.5119C89.0266 27.5119 85.6808 24.166 85.6808 20.0384C85.6808 15.9108 89.0266 12.5651 93.1541 12.5651C94.8195 12.5651 96.33 13.111 97.5409 14.0329V12.8094ZM97.5409 20.0385C97.5409 17.7952 95.7224 15.9789 93.4812 15.9789C91.24 15.9789 89.4217 17.7973 89.4217 20.0385C89.4217 22.2797 91.24 24.0981 93.4812 24.0981C95.7245 24.0981 97.5409 22.2818 97.5409 20.0385ZM114.682 7.66431H118.4V27.2697H114.682V26.046C113.471 26.968 111.961 27.514 110.295 27.514C106.168 27.514 102.822 24.1682 102.822 20.0406C102.822 15.913 106.168 12.5672 110.295 12.5672C111.961 12.5672 113.471 13.1131 114.682 14.0351V7.66431ZM114.682 20.0385C114.682 17.7973 112.864 15.9789 110.622 15.9789C108.381 15.9789 106.563 17.7973 106.563 20.0385C106.563 22.2797 108.379 24.0981 110.622 24.0981C112.864 24.0981 114.682 22.2818 114.682 20.0385ZM135.66 27.2676H139.377V12.8094H135.66V27.2676ZM137.518 7.09076C136.244 7.09076 135.267 8.0977 135.267 9.37229C135.267 10.6171 136.244 11.6241 137.518 11.6241C138.793 11.6241 139.77 10.6171 139.77 9.37229C139.77 8.09765 138.793 7.09076 137.518 7.09076ZM168.561 20.0385C168.561 24.166 165.215 27.5119 161.088 27.5119C156.96 27.5119 153.614 24.1661 153.614 20.0385C153.614 15.9109 156.96 12.5651 161.088 12.5651C165.215 12.5651 168.561 15.9109 168.561 20.0385ZM165.147 20.0385C165.147 17.7973 163.329 15.9789 161.088 15.9789C158.847 15.9789 157.028 17.7973 157.028 20.0385C157.028 22.2797 158.845 24.0981 161.088 24.0981C163.329 24.0981 165.147 22.2818 165.147 20.0385ZM54.776 7.66431H40.5154V10.9804H45.7944V27.2675H49.4992V10.9804H54.7782V7.66431H54.776ZM126.895 23.3078L123.587 12.8095H119.683L124.643 27.2676H129.117L134.107 12.8095H130.202L126.895 23.3078ZM174.008 15.2396V12.8094H170.282V27.2675H174.008V18.5983C174.008 17.0284 175.015 16.2572 176.585 16.2572H178.624V12.8095H176.882C175.518 12.8094 174.335 13.5211 174.008 15.2396Z" fill="black"/>
<path d="M19.0127 38.0254C29.5131 38.0254 38.0254 29.5131 38.0254 19.0127C38.0254 8.51227 29.5131 0 19.0127 0C8.51227 0 0 8.51227 0 19.0127C0 29.5131 8.51227 38.0254 19.0127 38.0254Z" fill="#34E0A1"/>
<path d="M30.756 15.3037L33.0502 12.8076H27.9625C25.4154 11.0678 22.3394 10.0545 19.0127 10.0545C15.6902 10.0545 12.6228 11.07 10.0799 12.8076H4.97943L7.2737 15.3037C5.86742 16.5868 4.98583 18.435 4.98583 20.4871C4.98583 24.3597 8.12561 27.4995 11.9983 27.4995C13.8379 27.4995 15.514 26.79 16.7652 25.6301L19.0128 28.0773L21.2603 25.6322C22.5115 26.7921 24.1855 27.4995 26.0251 27.4995C29.8978 27.4995 33.0418 24.3597 33.0418 20.4871C33.0438 18.4329 32.1623 16.5847 30.756 15.3037ZM12.0003 25.2328C9.37889 25.2328 7.25462 23.1085 7.25462 20.4871C7.25462 17.8657 9.37894 15.7413 12.0003 15.7413C14.6217 15.7413 16.746 17.8657 16.746 20.4871C16.746 23.1085 14.6217 25.2328 12.0003 25.2328ZM19.0148 20.349C19.0148 17.2262 16.744 14.5454 13.7465 13.4003C15.3674 12.7226 17.1454 12.3466 19.0127 12.3466C20.88 12.3466 22.6601 12.7226 24.281 13.4003C21.2858 14.5475 19.0148 17.2263 19.0148 20.349ZM26.0273 25.2328C23.4058 25.2328 21.2815 23.1085 21.2815 20.4871C21.2815 17.8657 23.4058 15.7413 26.0273 15.7413C28.6487 15.7413 30.773 17.8657 30.773 20.4871C30.773 23.1085 28.6487 25.2328 26.0273 25.2328ZM26.0273 17.9973C24.6528 17.9973 23.5396 19.1105 23.5396 20.485C23.5396 21.8594 24.6528 22.9725 26.0273 22.9725C27.4017 22.9725 28.5148 21.8594 28.5148 20.485C28.5148 19.1126 27.4017 17.9973 26.0273 17.9973ZM14.4879 20.4871C14.4879 21.8615 13.3747 22.9747 12.0003 22.9747C10.6259 22.9747 9.51276 21.8615 9.51276 20.4871C9.51276 19.1126 10.6259 17.9995 12.0003 17.9995C13.3747 17.9973 14.4879 19.1126 14.4879 20.4871Z" fill="black"/>
</svg>
