<svg width="19" height="19" viewBox="0 0 19 19" fill="none" xmlns="http://www.w3.org/2000/svg">
<path fill-rule="evenodd" clip-rule="evenodd" d="M9.27808 0C4.13648 0 0 4.11672 0 9.23377C0 13.312 2.66745 16.7747 6.34002 18.0058C6.80392 18.0828 6.95856 17.8135 6.95856 17.5442C6.95856 17.3133 6.95856 16.7362 6.95856 15.9667C4.36843 16.5438 3.82721 14.7356 3.82721 14.7356C3.40196 13.6583 2.78342 13.389 2.78342 13.389C1.93293 12.8119 2.86074 12.8119 2.86074 12.8119C3.78855 12.8888 4.29111 13.7737 4.29111 13.7737C5.10294 15.1972 6.456 14.774 6.99722 14.5432C7.07453 13.9276 7.30649 13.5429 7.5771 13.312C5.52819 13.0812 3.3633 12.2732 3.3633 8.7336C3.3633 7.73328 3.71123 6.88685 4.32977 6.27127C4.25245 6.04042 3.90452 5.11704 4.40709 3.80893C4.40709 3.80893 5.18026 3.57808 6.95856 4.77078C7.69307 4.57841 8.5049 4.46299 9.27808 4.46299C10.0512 4.46299 10.8631 4.57841 11.5976 4.77078C13.3759 3.57808 14.1491 3.80893 14.1491 3.80893C14.6516 5.07857 14.3424 6.00195 14.2264 6.27127C14.8063 6.92532 15.1929 7.73328 15.1929 8.7336C15.1929 12.2732 13.028 13.0427 10.9404 13.2735C11.2883 13.5429 11.5589 14.12 11.5589 14.9664C11.5589 16.1976 11.5589 17.1979 11.5589 17.5057C11.5589 17.7365 11.7136 18.0443 12.2161 17.9674C15.8887 16.7747 18.5562 13.312 18.5562 9.23377C18.5562 4.11672 14.4197 0 9.27808 0Z" fill="#27272A"/>
</svg>
