<svg width="20" height="20" viewBox="0 0 20 20" fill="none" xmlns="http://www.w3.org/2000/svg">
<path d="M9.69946 1.7394C12.2892 1.7394 12.5959 1.74906 13.619 1.79548C14.2341 1.80297 14.8434 1.91538 15.4203 2.12783C15.8387 2.28841 16.2186 2.5344 16.5357 2.84997C16.8528 3.16554 17.1 3.54369 17.2613 3.96008C17.4748 4.53427 17.5878 5.14063 17.5953 5.75281C17.6415 6.77098 17.6516 7.07621 17.6516 9.65359C17.6516 12.231 17.6419 12.5362 17.5953 13.5544C17.5878 14.1666 17.4748 14.7729 17.2613 15.3471C17.1 15.7635 16.8528 16.1416 16.5357 16.4572C16.2186 16.7728 15.8387 17.0188 15.4203 17.1794C14.8434 17.3918 14.2341 17.5042 13.619 17.5117C12.5964 17.5577 12.2897 17.5678 9.69946 17.5678C7.10924 17.5678 6.80255 17.5581 5.77995 17.5117C5.16484 17.5042 4.55557 17.3918 3.97863 17.1794C3.56024 17.0188 3.18027 16.7728 2.86319 16.4572C2.5461 16.1416 2.29893 15.7635 2.13758 15.3471C1.92411 14.7729 1.81117 14.1666 1.80364 13.5544C1.75745 12.5362 1.74729 12.231 1.74729 9.65359C1.74729 7.07621 1.75699 6.77098 1.80364 5.75281C1.81117 5.14063 1.92411 4.53427 2.13758 3.96008C2.29893 3.54369 2.5461 3.16554 2.86319 2.84997C3.18027 2.5344 3.56024 2.28841 3.97863 2.12783C4.55557 1.91538 5.16484 1.80297 5.77995 1.79548C6.80302 1.74952 7.1097 1.7394 9.69946 1.7394ZM9.69946 0C7.06675 0 6.73512 0.0110321 5.70051 0.0579188C4.89548 0.0738547 4.09899 0.225553 3.34493 0.50656C2.69806 0.749114 2.11217 1.12922 1.62812 1.62035C1.13419 2.10226 0.751936 2.68568 0.508067 3.32987C0.225711 4.08033 0.0732854 4.87302 0.057273 5.6742C0.0110851 6.70295 0 7.033 0 9.65313C0 12.2733 0.0110851 12.6033 0.0581967 13.633C0.0742091 14.4342 0.226635 15.2269 0.508991 15.9773C0.75259 16.6214 1.13452 17.2048 1.62812 17.6868C2.11244 18.1781 2.69866 18.5582 3.34585 18.8006C4.09991 19.0816 4.8964 19.2333 5.70144 19.2493C6.73604 19.2952 7.06629 19.3072 9.70038 19.3072C12.3345 19.3072 12.6647 19.2962 13.6993 19.2493C14.5044 19.2333 15.3009 19.0816 16.0549 18.8006C16.699 18.5521 17.284 18.1726 17.7723 17.6863C18.2606 17.2 18.6416 16.6176 18.8909 15.9764C19.1732 15.2259 19.3256 14.4333 19.3416 13.6321C19.3878 12.6033 19.3989 12.2733 19.3989 9.65313C19.3989 7.033 19.3878 6.70295 19.3407 5.67329C19.3247 4.8721 19.1723 4.07941 18.8899 3.32895C18.6463 2.68485 18.2644 2.10143 17.7708 1.61943C17.2865 1.12819 16.7003 0.748076 16.0531 0.50564C15.299 0.224633 14.5025 0.0729354 13.6975 0.0569995C12.6638 0.0110322 12.3322 0 9.69946 0Z" fill="#27272A"/>
<path d="M9.6977 4.69629C8.71257 4.69629 7.74957 4.98702 6.93046 5.53171C6.11136 6.07641 5.47294 6.8506 5.09595 7.7564C4.71896 8.66219 4.62032 9.6589 4.81251 10.6205C5.00469 11.5821 5.47908 12.4653 6.17567 13.1586C6.87226 13.8519 7.75978 14.324 8.72598 14.5153C9.69218 14.7065 10.6937 14.6084 11.6038 14.2332C12.514 13.858 13.2919 13.2226 13.8392 12.4074C14.3865 11.5922 14.6786 10.6338 14.6786 9.6534C14.6786 8.3387 14.1538 7.07783 13.2197 6.14819C12.2856 5.21856 11.0187 4.69629 9.6977 4.69629ZM9.6977 12.8711C9.05825 12.8711 8.43315 12.6824 7.90146 12.3288C7.36977 11.9753 6.95537 11.4727 6.71066 10.8848C6.46595 10.2968 6.40192 9.64983 6.52667 9.02566C6.65143 8.40148 6.95935 7.82814 7.41152 7.37814C7.86368 6.92813 8.43978 6.62168 9.06695 6.49752C9.69412 6.37336 10.3442 6.43708 10.935 6.68063C11.5258 6.92417 12.0307 7.33659 12.386 7.86574C12.7412 8.39489 12.9309 9.017 12.9309 9.6534C12.9309 10.5068 12.5902 11.3252 11.9839 11.9287C11.3776 12.5321 10.5552 12.8711 9.6977 12.8711Z" fill="#27272A"/>
<path d="M14.8761 5.65855C15.5189 5.65855 16.04 5.13993 16.04 4.50017C16.04 3.86042 15.5189 3.3418 14.8761 3.3418C14.2333 3.3418 13.7122 3.86042 13.7122 4.50017C13.7122 5.13993 14.2333 5.65855 14.8761 5.65855Z" fill="#27272A"/>
</svg>
