<svg width="16" height="13" viewBox="0 0 16 13" fill="none" xmlns="http://www.w3.org/2000/svg">
<path d="M15.9991 1.49275C15.3991 1.75813 14.7658 1.92399 14.0992 2.02351C14.7658 1.62544 15.2991 0.995169 15.5325 0.232206C14.8992 0.597101 14.1992 0.862479 13.4326 1.02834C12.8326 0.398067 11.966 0 11.0327 0C9.23282 0 7.76623 1.45958 7.76623 3.25088C7.76623 3.51626 7.79957 3.74847 7.86623 3.98067C5.16638 3.84799 2.73318 2.55427 1.09994 0.563929C0.833287 1.06151 0.666629 1.59227 0.666629 2.18937C0.666629 3.31723 1.23326 4.3124 2.13321 4.9095C1.59991 4.87633 1.09994 4.74364 0.633298 4.51143V4.5446C0.633298 6.13687 1.76657 7.46376 3.26648 7.76232C2.99983 7.82866 2.69985 7.86183 2.39987 7.86183C2.19988 7.86183 1.96656 7.82866 1.76657 7.79549C2.19988 9.08921 3.39981 10.0512 4.83306 10.0512C3.69979 10.9137 2.29987 11.4444 0.766624 11.4444C0.499972 11.4444 0.23332 11.4444 0 11.4113C1.46658 12.3401 3.16649 12.8708 5.03305 12.8708C11.066 12.8708 14.3659 7.895 14.3659 3.58261C14.3659 3.44992 14.3659 3.28406 14.3659 3.15137C14.9992 2.72013 15.5658 2.1562 15.9991 1.49275Z" fill="#27272A"/>
</svg>
